<svg id="a9dd7905-184c-41a0-9641-fff2717ba1e9" data-name="Layer 1" xmlns="http://www.w3.org/2000/svg" xmlns:xlink="http://www.w3.org/1999/xlink" width="865.76" height="682.89" viewBox="0 0 865.76 682.89"><defs><clipPath id="e997f8bc-3e6d-4c4a-8820-8653a6052249"><polygon points="815.01 375.03 815.01 384.49 661.79 397.75 297.82 395.46 301.57 387.4 661.13 387.73 815.01 375.03" fill="#c9c6cc" stroke="#351d66" stroke-miterlimit="10"></polygon></clipPath><clipPath id="ea9b3a56-22df-4200-9d95-2c9e44871a67"><path d="M89.59,481,73.14,413.55a8.45,8.45,0,0,1,9.56-10.34l32.57,5.26a6.76,6.76,0,0,1,5.5,5.15L138.84,492Z" fill="#f9d067" stroke="#351d66" stroke-miterlimit="10" data-secondary="true"></path></clipPath><clipPath id="e4a6cba4-76a1-4763-8b13-1063dccf24b0"><path d="M212.89,510l1.91,4.58,16.25,55.66,175.62-1a8.65,8.65,0,0,0,8.6-8.58l.26-34.74a9.17,9.17,0,0,0-7.72-9.12l-35.36-5.63-52.58-5.73Z" fill="#f9d067" stroke="#351d66" stroke-miterlimit="10" data-secondary="true"></path></clipPath><clipPath id="a3e026af-c2c2-4b63-bbec-5e028b6bef14"><path d="M335.81,545.28l20.34,55.5A54.5,54.5,0,0,0,391.68,594l-17.89-57.35Z" fill="#c9c6cc" stroke="#351d66" stroke-miterlimit="10"></path></clipPath><clipPath id="e02ce87a-dec0-4fe2-85c8-0b5eca4fb7cb"><path d="M127.27,348.19a.33.33,0,0,1-.43-.13,3.71,3.71,0,0,1,.82-5l35-22.24a22.75,22.75,0,0,0,3.53-2.82,18.18,18.18,0,0,1,2.76-2.17,20.14,20.14,0,0,1,28.3,7.07c3.45,6,5.91,13.9,3.09,22.63,0,0-8.58,25.17-23.31,23.33l-26,.26S135.7,344.46,127.27,348.19Z" fill="#8f2876" stroke="#351d66" stroke-miterlimit="10" data-primary="true"></path></clipPath><clipPath id="b9e39894-e609-40ee-8d1d-1df246730be9"><path d="M299.09,312.14s30.61,21.33,42.41,37.64c0,0-14.81,18.58-23.84,24.1l-10.58-23.79S308.37,320.67,299.09,312.14Z" fill="#8f2876" stroke="#351d66" stroke-miterlimit="10" data-primary="true"></path></clipPath><clipPath id="fcf6342e-2876-485f-b516-3651c32d848d"><path d="M223.59,269.33l-.66,41.72s22.85,2.32,37.75-1l-1.33-20.53-32.21-20.59Z" fill="#f9c7a5" stroke="#351d66" stroke-miterlimit="10"></path></clipPath><clipPath id="ab403512-b3a5-4282-81eb-9293057afa95"><path d="M547.65,349.17a4.69,4.69,0,0,1-.79.49c-4.14,2.07-11.3-1.5-16.58-8.43-5.65-7.4-7-15.84-3.06-18.85a5.54,5.54,0,0,1,3.65-1.06c4.11.11,9.52,3.49,13.72,9C550.23,337.72,551.6,346.16,547.65,349.17Z" fill="#c9c6cc" stroke="#351d66" stroke-miterlimit="10"></path></clipPath><clipPath id="eda4b603-790f-43f9-a3b6-e0d1f4909827"><polygon points="420.93 292.96 650.53 292.96 671.15 159.55 443.26 159.55 420.93 292.96" fill="#fff"></polygon></clipPath><clipPath id="a1d29955-c5ce-4e54-8ca3-700ddd002823"><polygon points="491.79 248.53 489.26 294.45 599.19 294.45 581.83 250.08 491.79 248.53" fill="#f9d067" stroke="#351d66" stroke-miterlimit="10" data-secondary="true"></polygon></clipPath><clipPath id="be963774-08ad-4c80-a15b-2301d1d49d85"><path d="M581.82,250,615,173.29s19.15-35.17-31.93-44.78l-66,3s-24.62,2.86-32.06,14.6c0,0,8.44,84.71,6.73,102.42a1.49,1.49,0,0,0,1.08,1.59C499.52,252.06,532.82,260.48,581.82,250Z" fill="#f9d067" stroke="#351d66" stroke-miterlimit="10" data-secondary="true"></path></clipPath><clipPath id="b87566ef-3fc2-4d4e-9a49-183352c9c2ee"><path d="M441.54,122.72,443.68,134l-1,2.8,4.58,4.39,24.43-11.45-1.34-3.06-1.48-1.09-7.49-14.37s-1.91-6.87-13.17-14.12l-17-11.26s-13.17-8.4-25.2-11.45c0,0-9.35-4.58-9.35,1.33,0,0-1.68,2.85,6.9,4.47a.28.28,0,0,1,0,.55c-4.21.62-13.94,2.63-12.44,7.58,0,0,1,3.19,7,.75a7.79,7.79,0,0,1,2.9-.56h3.89a.2.2,0,0,1,.16.31c-1.1,1.59-5.74,9,0,13.24,0,0,5.53.58,4.58-3.62,0,0-.28-7.59,5-9.39a7.13,7.13,0,0,1,4.86.19c3.1,1.19,10.09,4.35,12.44,9.2,3.05,6.3-10.12,4.39-10.12,4.39l-11.11-2.15s-4.65-.28-5.48,2.46a2.71,2.71,0,0,0,1.51,3.18l15.85,7.53S436.82,122.24,441.54,122.72Z" fill="#f9c7a5" stroke="#351d66" stroke-miterlimit="10"></path></clipPath><clipPath id="fc747b1b-4496-4475-908d-a826bdee3720"><path d="M529,117.29s-7,3.52-8.28,8.11a5.46,5.46,0,0,1-1.29,2.31,7.72,7.72,0,0,0-1.89,7s.75,9,29.16,6c0,0,25.92-1,36.39-12.21l-7.48-10.72a12.46,12.46,0,0,0-11.51-5.51Z" fill="#7ddcf2" stroke="#351d66" stroke-miterlimit="10"></path></clipPath><clipPath id="b3ac0363-1992-4e42-9d3f-8a1369f85881"><path d="M529.42,112.05a72,72,0,0,1-1.82,10.79,7.26,7.26,0,0,0-.29,1.46c-.17,1.92-.27,6.61,2.56,7.67a64.63,64.63,0,0,1,7,1,4.59,4.59,0,0,0,3.79-.81c2.14-1.64,6.49-5.12,16.71-8.48a10.49,10.49,0,0,0,6.71-11.41l1.11-20.1-2.29-3.44Z" fill="#f9c7a5" stroke="#351d66" stroke-miterlimit="10"></path></clipPath><clipPath id="b4c99f2e-a262-4b83-a534-25a7c7ac9fa9"><path d="M498.8,230.93,408,205.74s-4.2-3.05-.38-4.2l54.2,4.2s5-.76,5.35-8c0,0-1.15-9.54-.38-14.5,0,0,4.58-.76,7.25-2.67,0,0,.76,13.17,5.53,18.32,0,0,5.16,5.15,5.35,6.68h20.61a20.44,20.44,0,0,1,.95,13.93S503.19,229.22,498.8,230.93Z" fill="#f9c7a5" stroke="#351d66" stroke-miterlimit="10"></path></clipPath><clipPath id="a5f12cd6-a63f-4df2-9456-9b8c0762240d"><path d="M528.44,140.65a27.78,27.78,0,0,1-11.26.82s-5.63-.49-4.64,8.61l2.32,16.73s12.25-.33,12.75-15.07c0,0-1-6.34,3.67-7.45a1.51,1.51,0,0,1,1.73.89c.93,2.17,3.31,7.16,6.49,9.62a12.36,12.36,0,0,1,4,5.17,23.65,23.65,0,0,1,1.08,13.09.28.28,0,0,0,.52.18l9.8-20.34s3.31-6.13-3.48-8.78c0,0-2-1-7.28-3.14l-6-.33Z" fill="#7ddcf2" stroke="#351d66" stroke-miterlimit="10"></path></clipPath><clipPath id="a1544e1d-cadb-46a3-b5ef-6f65e6f77eb0"><ellipse cx="533.82" cy="137.33" rx="5.22" ry="5.96" fill="#7ddcf2" stroke="#351d66" stroke-miterlimit="10"></ellipse></clipPath><clipPath id="ac53ff6e-954f-4c55-be85-6b9aaf487c7d"><path d="M503.69,203.45a.34.34,0,0,0-.22.61c2,1.64,6.38,6.84,1.82,18.09,0,0-2.76,8.28-8.61,10.08a.18.18,0,0,0,0,.36l13.53,1.8a3.77,3.77,0,0,1,3.08,2.48c1.13,3.31,5.42,9.33,21.74,9.33,0,0,6.36,1.69,16.07-1.89a42.19,42.19,0,0,0,18.46-13.56L615,173.29s12-23.28-9.73-37.4c0,0-8-4.58-15.65-6.11l-45.81,68a6.77,6.77,0,0,1-6.93,2.88c-2.86-.57-7.29-.41-13.3,2.79Z" fill="#f9d067" stroke="#351d66" stroke-miterlimit="10" data-secondary="true"></path></clipPath><clipPath id="fae19131-ff6c-4d5a-8048-f994a915ec2b"><path d="M177,368.83l-11.74,53.25c-7.73,24.91,16.61,33.21,16.61,33.21,2.86-15.46,69.85-16.32,69.85-16.32,27.2-15.17-8.31-110.57-8.31-110.57l-32.25-25.13c-36.34,4-44.4,13.16-45.89,15.49a.11.11,0,0,0,.16.14c2.85-2.39,18.2-14,26.4,6.22a37.22,37.22,0,0,1,2.67,14.68C194.34,349.23,191.79,365.07,177,368.83Z" fill="#8f2876" stroke="#351d66" stroke-miterlimit="10" data-primary="true"></path></clipPath><clipPath id="b16cd691-bc3d-47a4-abcf-f0a70139913a"><path d="M127.27,348.18s-28.53,16-33.22,26.58c0,0-8.14,20,6.42,27.87a28.93,28.93,0,0,0,16.28,3.94H153l-7.15-35.76s-2-6.17,1-8.39C146.84,362.42,134.34,345.05,127.27,348.18Z" fill="#f9c7a5" stroke="#351d66" stroke-miterlimit="10"></path></clipPath><clipPath id="aa584e96-56ab-4549-acc4-eb69a0d5a8ac"><path d="M269.68,300.26s30.44.2,35.88,23.81a209,209,0,0,1,1.54,22,20.51,20.51,0,0,0,1.78,8.13l21.8,49.19-35.4,28.14s5.44-16.94-4.54-40.85c0,0-21.36-39.72-24.91-65.25Z" fill="#8f2876" stroke="#351d66" stroke-miterlimit="10" data-primary="true"></path></clipPath><clipPath id="f6635782-3446-43e6-af02-64d166100302"><path d="M317.66,373.88l13,29.47,5.52-.25s28.15-23.69,34.77-29.84l-20-43.68a1.62,1.62,0,0,1,.31-1.79c3.26-3.32,15.31-17.67,9.09-42.83l-2.72,6.13s-5-9-19.17,4c0,0-5,5.73,2.48,6.87l.57,1S320,304,322.25,310.14c0,0-.19,1.91,2.49,3.25,0,0-5.16,6.49,4.77,8,0,0-.58,3.82,2.86,5.35l-7.83.19s-1.71,5.15,1,8.2l5,27.68Z" fill="#f9c7a5" stroke="#351d66" stroke-miterlimit="10"></path></clipPath><clipPath id="b2717dc6-5bf3-4891-9646-d044c8483d8b"><path d="M181.88,455.29l1.85,9.5L253.16,443v-4.87l-1.43.86S186.17,439.55,181.88,455.29Z" fill="#8f2876" stroke="#351d66" stroke-miterlimit="10" data-primary="true"></path></clipPath><clipPath id="ac7fd78c-a832-42db-82dd-1f095c565b4c"><path d="M286.18,496.23l27.49-8,22.14,57.07s27.48,3.06,38-8.59l-9.93-32.63-34.54-76.25a33.48,33.48,0,0,0-10,.57l-38.37,9.88s-11.16,12.59-4.29,39.08C276.64,477.34,278.83,488.69,286.18,496.23Z" fill="#f9c7a5" stroke="#351d66" stroke-miterlimit="10"></path></clipPath><clipPath id="f017678e-12be-42e2-9d51-fedfdf70e1fa"><path d="M265.83,325.39S255.35,311,261.16,297.7a11.73,11.73,0,0,1,1.87-3,7.28,7.28,0,0,0,1-8.83s5.36,4.35,4.52,8.87c0,0-.8,3.74,1.17,5.49a8.08,8.08,0,0,1,1.88,2.24c1.48,2.79,3.74,8.65,1,15C272.53,317.52,269.68,323.21,265.83,325.39Z" fill="#7ddcf2" stroke="#351d66" stroke-miterlimit="10"></path></clipPath><clipPath id="a558380c-cbc5-41d6-87c8-c3d087c75efc"><path d="M222.5,294.27s18.07,5.19,19.91,24.26l1,9.87s-24.6-5.86-32.63-23.09a2.69,2.69,0,0,1,.73-3.09,6,6,0,0,0,1.52-1.81,9.84,9.84,0,0,0,.69-1.74,9.36,9.36,0,0,0-.13-5.32c-.67-2.27-.72-7,9.31-9.6a.09.09,0,0,1,.07.16C220.41,285.26,212.18,290.25,222.5,294.27Z" fill="#7ddcf2" stroke="#351d66" stroke-miterlimit="10"></path></clipPath><clipPath id="abb6c9a7-ad42-4b94-95d3-10fe1a978aa5"><path d="M331,405.76l57.06-47a26.34,26.34,0,0,1,17-6.14c5.44.06,11.45,1.85,15.32,8.17,0,0,8.3,13.74.86,23.76l-45,47.52s4-28.63-31.49-23.76l-6.93,7.39A59.44,59.44,0,0,1,331,405.76Z" fill="#f9c7a5" stroke="#351d66" stroke-miterlimit="10"></path></clipPath><clipPath id="ffbde16c-4241-476c-b577-add9908e0450"><path d="M317.55,440.12l27.23-31.78s17.46-3.47,26.55,6.32c0,0,5.78,5.68,4.94,17.44l-25.78,26.54s-1.42-8.72-13-9.61l-16.28-2.21a1.43,1.43,0,0,1-1.14-.86Z" fill="#c9c6cc" stroke="#351d66" stroke-miterlimit="10"></path></clipPath><clipPath id="a45b97b8-51bb-4158-b436-3211aec9bb65"><path d="M72.94,547.05l14.65-46.38,146,15.8a10.15,10.15,0,0,1,9,10.68l.08,33.61a10.15,10.15,0,0,1-11.6,9.45Z" fill="#f9d067" stroke="#351d66" stroke-miterlimit="10" data-secondary="true"></path></clipPath><clipPath id="e1e4dccd-fb95-4794-9df6-ac3dd0d3e279"><path d="M168.81,415a10.84,10.84,0,0,1-5.31-5.37l-17.65-38.83s-2.23-5.16,1-8.39l28.07-13.22s6.41,1,9.23,9.23l13.89,35a10.76,10.76,0,0,1,.54,6.27,15.91,15.91,0,0,1-4.95,8.73s-14.86,10-23.83,6.92C169.79,415.31,169.64,415.39,168.81,415Z" fill="#f9d067" stroke="#351d66" stroke-miterlimit="10" data-secondary="true"></path></clipPath><clipPath id="b61ce04d-b847-4197-84d5-5bf280e73c8b"><path d="M145.85,370.81s.53,1.89,4.39,3.17c0,0,4.58,2.29,2.43,6.45a3.18,3.18,0,0,1-.72,1.36,2.05,2.05,0,0,0-.13,2.78,5.48,5.48,0,0,0,2.82,1.68,8.57,8.57,0,0,0,3.11.22c2.43-.23,8.75-.4,8.52,4.12,0,0,.74,3.18-3.34,3.88a.4.4,0,0,0,0,.78,26.27,26.27,0,0,0,6.55.13,3.79,3.79,0,0,1,2.15.39c.9.5,1.78,1.5,1.23,3.55a5,5,0,0,1-3.8,4.06.94.94,0,0,0-.62,1.24c.61,1.62,1.22,4.72-2.31,5.87,0,0-15.6,3-15.46-9,0,0-5.73-1.43-4.58-9.16,0,0-5.3-2.15-3-11.17C143.08,381.14,136.45,373.22,145.85,370.81Z" fill="#f9c7a5" stroke="#351d66" stroke-miterlimit="10"></path></clipPath></defs><polygon points="48.03 604.22 54.49 605.17 87.59 500.67 77.42 498.87 48.03 604.22" fill="#d2e1f9"></polygon><polygon points="657.92 388.12 815.01 375.03 324.12 374.31 301.57 387.4 657.92 388.12" fill="#251860"></polygon><polygon points="815.01 375.03 815.01 384.49 661.79 397.75 297.82 395.46 301.57 387.4 661.13 387.73 815.01 375.03" fill="#c9c6cc"></polygon><g clip-path="url(#e997f8bc-3e6d-4c4a-8820-8653a6052249)"><polygon points="661.13 387.73 661.79 397.75 815.01 384.49 815.01 375.03 661.13 387.73" fill="#bcbec0"></polygon></g><polygon points="815.01 375.03 815.01 384.49 661.79 397.75 297.82 395.46 301.57 387.4 661.13 387.73 815.01 375.03" fill="none" stroke="#351d66" stroke-miterlimit="10"></polygon><ellipse cx="387.39" cy="142.88" rx="6.46" ry="16.15" transform="translate(170.86 494.46) rotate(-78.62)" fill="#d54b4b" stroke="#351d66" stroke-miterlimit="10"></ellipse><path d="M76.52,404.33s1.72-2.29,8.88-3.43l204.41,3.72,3.43,80.73-85.88,6.87-71-10.88Z" fill="#f9d067" stroke="#351d66" stroke-miterlimit="10" data-secondary="true"></path><path d="M341.86,264.78l-24,62.12s0,0,0,0l23.42-.57,0,0,23.16-60.52a1,1,0,0,0-.9-1.33l-20.82-.34A1,1,0,0,0,341.86,264.78Z" fill="#251860"></path><path d="M344.72,264.59l-24,62.12a0,0,0,0,0,0,0l23.43-.58h0l23.16-60.52a1,1,0,0,0-.89-1.33L345.65,264A1,1,0,0,0,344.72,264.59Z" fill="#c9c6cc" stroke="#351d66" stroke-miterlimit="10"></path><ellipse cx="354.8" cy="272.35" rx="3.24" ry="1.72" transform="translate(22.05 571.25) rotate(-79.44)" fill="#251860"></ellipse><polygon points="384.86 512.84 379.99 498.24 371.97 507.11 373.69 513.7 384.86 512.84" fill="#d2e1f9"></polygon><polyline points="236 582.26 395.35 582.12 412.53 635.18 424.94 635.23 402.99 568.76 231.98 570.09" fill="#d2e1f9"></polyline><path d="M89.59,481,73.14,413.55a8.45,8.45,0,0,1,9.56-10.34l32.57,5.26a6.76,6.76,0,0,1,5.5,5.15L138.84,492Z" fill="#f9d067" data-secondary="true"></path><g clip-path="url(#ea9b3a56-22df-4200-9d95-2c9e44871a67)"><path d="M87.09,473.71l27.58,4.63s-31.73-39.78-16.35-72.49L82.7,403.21s-9.83-1.48-9.56,10.34Z" opacity="0.2"></path></g><path d="M89.59,481,73.14,413.55a8.45,8.45,0,0,1,9.56-10.34l32.57,5.26a6.76,6.76,0,0,1,5.5,5.15L138.84,492Z" fill="none" stroke="#351d66" stroke-miterlimit="10"></path><polygon points="253.16 442.98 251.73 438.97 235.15 322.6 235.72 306.28 266.64 306.57 290.4 360.68 302.14 428.24 293.55 435.4 253.16 442.98" fill="#fff" stroke="#351d66" stroke-miterlimit="10"></polygon><path d="M352.28,624.4s-7.48,11.43-3.92,18.66a4,4,0,0,0,2.56,2.07c2.67.72,8.42,2.76,10.87,7.31,0,0,8,12.3,30.73,8.12a11.06,11.06,0,0,1,2.23-.15c5.75.22,33.66-1.23,32.39-16.31,0,0-1.16-12.75-19.24-8.81H370.13S361.55,622.32,352.28,624.4Z" fill="#c9c6cc" stroke="#351d66" stroke-miterlimit="10"></path><path d="M212.89,510l1.91,4.58,16.25,55.66,175.62-1a8.65,8.65,0,0,0,8.6-8.58l.26-34.74a9.17,9.17,0,0,0-7.72-9.12l-35.36-5.63-52.58-5.73Z" fill="#f9d067" data-secondary="true"></path><g clip-path="url(#e4a6cba4-76a1-4763-8b13-1063dccf24b0)"><path d="M242.58,532.41s68.9-18.63,153-17.5l-57-11.3L212.89,510l.89,6.63S243.71,517.73,242.58,532.41Z" opacity="0.2"></path></g><path d="M212.89,510l1.91,4.58,16.25,55.66,175.62-1a8.65,8.65,0,0,0,8.6-8.58l.26-34.74a9.17,9.17,0,0,0-7.72-9.12l-35.36-5.63-52.58-5.73Z" fill="none" stroke="#351d66" stroke-miterlimit="10"></path><path d="M335.81,545.28l20.34,55.5A54.5,54.5,0,0,0,391.68,594l-17.89-57.35Z" fill="#c9c6cc"></path><g clip-path="url(#a3e026af-c2c2-4b63-bbec-5e028b6bef14)"><path d="M340,556.73c1.64.11,3.27.17,4.9.14s3.27,0,4.9-.15a73.3,73.3,0,0,0,9.69-1.21,58,58,0,0,0,9.42-2.54l2.29-.85c.75-.32,1.48-.68,2.22-1l1.12-.5,1.08-.59,2.16-1.17a43,43,0,0,1-8.69,4.6,53.9,53.9,0,0,1-9.47,2.72,65.85,65.85,0,0,1-9.8,1.06A55.6,55.6,0,0,1,340,556.73Z" fill="#351d66"></path><path d="M342.55,564.61c1.63.11,3.26.18,4.89.18s3.25,0,4.88-.07a78.52,78.52,0,0,0,9.69-1c1.6-.27,3.19-.59,4.76-1s3.12-.89,4.66-1.41a37,37,0,0,0,8.66-4.41,32.1,32.1,0,0,1-4,2.79,41,41,0,0,1-4.45,2.1,49.45,49.45,0,0,1-9.49,2.55,68.3,68.3,0,0,1-9.79.83A61.48,61.48,0,0,1,342.55,564.61Z" fill="#351d66"></path></g><path d="M335.81,545.28l20.34,55.5A54.5,54.5,0,0,0,391.68,594l-17.89-57.35Z" fill="none" stroke="#351d66" stroke-miterlimit="10"></path><path d="M298.68,506l21.19-.57,55.72-54.33a4.75,4.75,0,0,0,1.22-4.84,20.83,20.83,0,0,0-5.7-8.68l-36.35-34.35-4.08.16-35.4,28.14Z" fill="#7ddcf2" stroke="#351d66" stroke-miterlimit="10"></path><polygon points="72.94 547.05 206.4 566.47 213.27 581.74 68.98 559.22 72.94 547.05" fill="#aac8f9" stroke="#6259b0" stroke-miterlimit="10"></polygon><path d="M127.27,348.19a.33.33,0,0,1-.43-.13,3.71,3.71,0,0,1,.82-5l35-22.24a22.75,22.75,0,0,0,3.53-2.82,18.18,18.18,0,0,1,2.76-2.17,20.14,20.14,0,0,1,28.3,7.07c3.45,6,5.91,13.9,3.09,22.63,0,0-8.58,25.17-23.31,23.33l-26,.26S135.7,344.46,127.27,348.19Z" fill="#8f2876" data-primary="true"></path><g clip-path="url(#e02ce87a-dec0-4fe2-85c8-0b5eca4fb7cb)"><path d="M165.28,318.76s12.27-11.11,21.91-1.73c0,0,18.25,21.81-1.27,46.91C185.92,363.94,201.7,318.46,165.28,318.76Z" opacity="0.2"></path><path d="M127.66,343a3.55,3.55,0,0,0-.82,5s2.23-1.22,5.67.55c0,0,10,5,18.54,20.49l2.77,0s-1.27-6.58-14.3-17.75C139.52,351.37,131.26,344.43,127.66,343Z" opacity="0.2"></path></g><path d="M127.27,348.19a.33.33,0,0,1-.43-.13,3.71,3.71,0,0,1,.82-5l35-22.24a22.75,22.75,0,0,0,3.53-2.82,18.18,18.18,0,0,1,2.76-2.17,20.14,20.14,0,0,1,28.3,7.07c3.45,6,5.91,13.9,3.09,22.63,0,0-8.58,25.17-23.31,23.33l-26,.26S135.7,344.46,127.27,348.19Z" fill="none" stroke="#351d66" stroke-miterlimit="10"></path><path d="M299.09,312.14s30.61,21.33,42.41,37.64c0,0-14.81,18.58-23.84,24.1l-10.58-23.79S308.37,320.67,299.09,312.14Z" fill="#8f2876" data-primary="true"></path><g clip-path="url(#b9e39894-e609-40ee-8d1d-1df246730be9)"><path d="M312.64,362.08S327.7,347.27,332.71,340l8.79,9.78s-12.3,15.81-23.84,24.1Z" opacity="0.2"></path></g><path d="M299.09,312.14s30.61,21.33,42.41,37.64c0,0-14.81,18.58-23.84,24.1l-10.58-23.79S308.37,320.67,299.09,312.14Z" fill="none" stroke="#351d66" stroke-miterlimit="10"></path><path d="M223.59,269.33l-.66,41.72s22.85,2.32,37.75-1l-1.33-20.53-32.21-20.59Z" fill="#f9c7a5"></path><g clip-path="url(#fcf6342e-2876-485f-b516-3651c32d848d)"><path d="M260.6,306.7s-27.59-1-31.33-28.43c4.86,10.19,12.7,16.67,21.13,16.15a16.43,16.43,0,0,0,8.9-3.39Z" fill="#f7a091"></path></g><path d="M223.59,269.33l-.66,41.72s22.85,2.32,37.75-1l-1.33-20.53-32.21-20.59Z" fill="none" stroke="#351d66" stroke-miterlimit="10"></path><polygon points="543.33 636.39 602.86 424.56 621.33 424.56 561.39 635.57 543.33 636.39" fill="#c9c6cc" stroke="#351d66" stroke-miterlimit="10"></polygon><polygon points="535.94 635.98 543.33 636.39 602.86 424.56 596.52 424.85 535.94 635.98" fill="#251860"></polygon><polygon points="655.4 537.74 655.69 549.77 805.32 537.46 805.7 526 655.4 537.74" fill="#c9c6cc" stroke="#351d66" stroke-miterlimit="10"></polygon><polygon points="550.9 535.45 550.9 549.2 577.24 549.2 577.24 536.88 588.98 536.88 588.98 548.62 615.32 548.62 615.32 536.6 625.91 536.6 625.91 548.91 655.69 548.91 655.69 537.74 771.35 528.87 769.63 526.58 550.9 535.45" fill="#251860"></polygon><path d="M492.5,324.74l26.89,38.41a10.08,10.08,0,0,1,1.85,6.65,7.74,7.74,0,0,1-3,5.56,9.31,9.31,0,0,1-5.18,1.89L470.46,380l-.16,3,82.09-.21,0-3.37,38.2-2.93a8.67,8.67,0,0,0,7.43-5.23,5.37,5.37,0,0,0,.21-.56,8.32,8.32,0,0,0-1.16-7.24l-25.5-37.57Z" fill="#c9c6cc" stroke="#351d66" stroke-miterlimit="10"></path><path d="M552.34,379.42v3.73l40.94-3.44s8.77-1.46,8.47-11.34a16.18,16.18,0,0,0-2.86-8.54l-23.08-33.94h-4.29L597,363.46s6.25,9.51-6.48,13Z" fill="#251860"></path><path d="M547.65,349.17a4.69,4.69,0,0,1-.79.49c-4.14,2.07-11.3-1.5-16.58-8.43-5.65-7.4-7-15.84-3.06-18.85a5.54,5.54,0,0,1,3.65-1.06c4.11.11,9.52,3.49,13.72,9C550.23,337.72,551.6,346.16,547.65,349.17Z" fill="#c9c6cc"></path><g clip-path="url(#ab403512-b3a5-4282-81eb-9293057afa95)"><path d="M546.86,349.66c-4.14,2.07-11.3-1.5-16.58-8.43-5.65-7.4-7-15.84-3.06-18.85a5.54,5.54,0,0,1,3.65-1.06,4.25,4.25,0,0,0-.78.49c-4,3-2.59,11.45,3,18.85C537.35,346.18,542.75,349.56,546.86,349.66Z" fill="#251860"></path></g><path d="M547.65,349.17a4.69,4.69,0,0,1-.79.49c-4.14,2.07-11.3-1.5-16.58-8.43-5.65-7.4-7-15.84-3.06-18.85a5.54,5.54,0,0,1,3.65-1.06c4.11.11,9.52,3.49,13.72,9C550.23,337.72,551.6,346.16,547.65,349.17Z" fill="none" stroke="#351d66" stroke-miterlimit="10"></path><path d="M649.46,327.13l-226.88-1.55a10.58,10.58,0,0,1-10.42-12.32L438,163.12a10.62,10.62,0,0,1,10.46-8.76l226.64-.87a10.58,10.58,0,0,1,10.55,12.27L660,318.32A10.62,10.62,0,0,1,649.46,327.13Z" fill="#251860"></path><path d="M644.88,324.39,418,322.83a10.65,10.65,0,0,1-10.42-12.45l25.87-151.73a10.66,10.66,0,0,1,10.46-8.87l226.64-.87a10.65,10.65,0,0,1,10.55,12.4L655.46,315.49A10.65,10.65,0,0,1,644.88,324.39Z" fill="#c9c6cc" stroke="#351d66" stroke-miterlimit="10"></path><polygon points="420.93 292.96 650.53 292.96 671.15 159.55 443.26 159.55 420.93 292.96" fill="#fff"></polygon><g clip-path="url(#eda4b603-790f-43f9-a3b6-e0d1f4909827)"><polygon points="491.79 248.53 489.26 294.45 599.19 294.45 581.83 250.08 491.79 248.53" fill="#f9d067" data-secondary="true"></polygon><g clip-path="url(#a1d29955-c5ce-4e54-8ca3-700ddd002823)"><path d="M489.26,294.45l26.74.05s-7.59-32.26,28-38.86c0,0-33.45.39-52.19-7.12Z" opacity="0.1"></path></g><polygon points="491.79 248.53 489.26 294.45 599.19 294.45 581.83 250.08 491.79 248.53" fill="none" stroke="#351d66" stroke-miterlimit="10"></polygon></g><path d="M581.82,250,615,173.29s19.15-35.17-31.93-44.78l-66,3s-24.62,2.86-32.06,14.6c0,0,8.44,84.71,6.73,102.42a1.49,1.49,0,0,0,1.08,1.59C499.52,252.06,532.82,260.48,581.82,250Z" fill="#f9d067" data-secondary="true"></path><g clip-path="url(#be963774-08ad-4c80-a15b-2301d1d49d85)"><path d="M569.59,230.75,615,173.29,581.82,250,544,255.38a136.34,136.34,0,0,0,17.88-5.2,13.12,13.12,0,0,0,8.25-13.33Z" opacity="0.1"></path></g><path d="M581.82,250,615,173.29s19.15-35.17-31.93-44.78l-66,3s-24.62,2.86-32.06,14.6c0,0,8.44,84.71,6.73,102.42a1.49,1.49,0,0,0,1.08,1.59C499.52,252.06,532.82,260.48,581.82,250Z" fill="none" stroke="#351d66" stroke-miterlimit="10"></path><path d="M441.54,122.72,443.68,134l-1,2.8,4.58,4.39,24.43-11.45-1.34-3.06-1.48-1.09-7.49-14.37s-1.91-6.87-13.17-14.12l-17-11.26s-13.17-8.4-25.2-11.45c0,0-9.35-4.58-9.35,1.33,0,0-1.68,2.85,6.9,4.47a.28.28,0,0,1,0,.55c-4.21.62-13.94,2.63-12.44,7.58,0,0,1,3.19,7,.75a7.79,7.79,0,0,1,2.9-.56h3.89a.2.2,0,0,1,.16.31c-1.1,1.59-5.74,9,0,13.24,0,0,5.53.58,4.58-3.62,0,0-.28-7.59,5-9.39a7.13,7.13,0,0,1,4.86.19c3.1,1.19,10.09,4.35,12.44,9.2,3.05,6.3-10.12,4.39-10.12,4.39l-11.11-2.15s-4.65-.28-5.48,2.46a2.71,2.71,0,0,0,1.51,3.18l15.85,7.53S436.82,122.24,441.54,122.72Z" fill="#f9c7a5"></path><g clip-path="url(#b87566ef-3fc2-4d4e-9a49-183352c9c2ee)"><path d="M402.25,94.45a13,13,0,0,1,2.64-6.6,16,16,0,0,1,5.61-4.66,19.4,19.4,0,0,1,7-1.78,32.68,32.68,0,0,1,3.57,0c1.18.19,2.34.39,3.48.67-1.18.16-2.33.23-3.48.31l-1.7.25c-.56.11-1.13.1-1.68.26a26.53,26.53,0,0,0-3.24.84,13.79,13.79,0,0,0-1.57.53l-1.51.66a19.53,19.53,0,0,0-5.3,3.87A20.36,20.36,0,0,0,402.25,94.45Z" fill="#f7a091"></path><path d="M441.54,122.72s4.87-.1,6.3-1.67a46.21,46.21,0,0,1-4.72,10.73Z" fill="#f7a091"></path></g><path d="M441.54,122.72,443.68,134l-1,2.8,4.58,4.39,24.43-11.45-1.34-3.06-1.48-1.09-7.49-14.37s-1.91-6.87-13.17-14.12l-17-11.26s-13.17-8.4-25.2-11.45c0,0-9.35-4.58-9.35,1.33,0,0-1.68,2.85,6.9,4.47a.28.28,0,0,1,0,.55c-4.21.62-13.94,2.63-12.44,7.58,0,0,1,3.19,7,.75a7.79,7.79,0,0,1,2.9-.56h3.89a.2.2,0,0,1,.16.31c-1.1,1.59-5.74,9,0,13.24,0,0,5.53.58,4.58-3.62,0,0-.28-7.59,5-9.39a7.13,7.13,0,0,1,4.86.19c3.1,1.19,10.09,4.35,12.44,9.2,3.05,6.3-10.12,4.39-10.12,4.39l-11.11-2.15s-4.65-.28-5.48,2.46a2.71,2.71,0,0,0,1.51,3.18l15.85,7.53S436.82,122.24,441.54,122.72Z" fill="none" stroke="#351d66" stroke-miterlimit="10"></path><path d="M443.57,134.42c-.19.87-.24,3,3.74,3,0,0,17.42-1.61,22.34-9.81a.92.92,0,0,0-.07-1l-.7-.94a3.77,3.77,0,0,1,3.58,2.29l13.74,46.52,1.91.19,2.86,41.8s-24.43,9.16-30.53-8l-18.33-69.85a4.64,4.64,0,0,1,1.26-4.25A.12.12,0,0,1,443.57,134.42Z" fill="#f9d067" stroke="#351d66" stroke-miterlimit="10" data-secondary="true"></path><path d="M529,117.29s-7,3.52-8.28,8.11a5.46,5.46,0,0,1-1.29,2.31,7.72,7.72,0,0,0-1.89,7s.75,9,29.16,6c0,0,25.92-1,36.39-12.21l-7.48-10.72a12.46,12.46,0,0,0-11.51-5.51Z" fill="#7ddcf2"></path><g clip-path="url(#fc747b1b-4496-4475-908d-a826bdee3720)"><path d="M538.21,140.65a10.62,10.62,0,0,0,.59-4.62s28-.79,36.82-18.24l7.48,10.72S572.16,141.44,538.21,140.65Z" fill="#69c4e1"></path><path d="M529,117.29l-1.7,7s-.71,7.08,2.56,7.67l1.91.18-2.27,8.58-1.07-.08s-13.91-1.16-10.5-10.36a6,6,0,0,1,2-3,7.37,7.37,0,0,0,1-3.2S524.8,119.28,529,117.29Z" fill="#69c4e1"></path></g><path d="M529,117.29s-7,3.52-8.28,8.11a5.46,5.46,0,0,1-1.29,2.31,7.72,7.72,0,0,0-1.89,7s.75,9,29.16,6c0,0,25.92-1,36.39-12.21l-7.48-10.72a12.46,12.46,0,0,0-11.51-5.51Z" fill="none" stroke="#351d66" stroke-miterlimit="10"></path><path d="M529.42,112.05a72,72,0,0,1-1.82,10.79,7.26,7.26,0,0,0-.29,1.46c-.17,1.92-.27,6.61,2.56,7.67a64.63,64.63,0,0,1,7,1,4.59,4.59,0,0,0,3.79-.81c2.14-1.64,6.49-5.12,16.71-8.48a10.49,10.49,0,0,0,6.71-11.41l1.11-20.1-2.29-3.44Z" fill="#f9c7a5"></path><g clip-path="url(#b3ac0363-1992-4e42-9d3f-8a1369f85881)"><path d="M560.07,94.66s-8,19.66-24.43,19.66c0,0-4.23-.15-6.22-2.27,0,0-.7,8.24-1.82,10.79a24.06,24.06,0,0,0-.17,6S557.78,132.83,560.07,94.66Z" fill="#f7a091"></path></g><path d="M529.42,112.05a72,72,0,0,1-1.82,10.79,7.26,7.26,0,0,0-.29,1.46c-.17,1.92-.27,6.61,2.56,7.67a64.63,64.63,0,0,1,7,1,4.59,4.59,0,0,0,3.79-.81c2.14-1.64,6.49-5.12,16.71-8.48a10.49,10.49,0,0,0,6.71-11.41l1.11-20.1-2.29-3.44Z" fill="none" stroke="#351d66" stroke-miterlimit="10"></path><ellipse cx="541.96" cy="74.37" rx="40.48" ry="23.99" transform="translate(359.14 589.95) rotate(-78.29)" fill="#f9c7a5" stroke="#351d66" stroke-miterlimit="10"></ellipse><path d="M518.47,69.5s-19.1-7.86-10.79-26.18c0,0,5.5-13.38,20.79-13.27a4.93,4.93,0,0,0,3.54-1.5c3.85-4,15-13,27.48-1.26,0,0,3.15,4.29,11.46,4.58,0,0,13.16-1.15,14,3.15,0,0,2.29,6.87-9.16,15.46,0,0,3.44-9.17-23.19-14.89,0,0-16-3.72-24.9,6.87Z" fill="#7ddcf2" stroke="#351d66" stroke-miterlimit="10"></path><path d="M575.81,50.48l-3.2,13.44a.2.2,0,0,1-.38,0c-.9-1.8-4.56-7.71-14.84-10.92a29.25,29.25,0,0,0-7.22-1.5s-5.75-.41-9-3.65c0,0-5.29-7.67-12.93-5.6A.18.18,0,0,1,528,42c1.52-1.9,8.55-9.17,25.54-6.34C553.58,35.68,577.43,40.07,575.81,50.48Z" fill="#7ddcf2" stroke="#351d66" stroke-miterlimit="10"></path><path d="M498.8,230.93,408,205.74s-4.2-3.05-.38-4.2l54.2,4.2s5-.76,5.35-8c0,0-1.15-9.54-.38-14.5,0,0,4.58-.76,7.25-2.67,0,0,.76,13.17,5.53,18.32,0,0,5.16,5.15,5.35,6.68h20.61a20.44,20.44,0,0,1,.95,13.93S503.19,229.22,498.8,230.93Z" fill="#f9c7a5"></path><g clip-path="url(#b4c99f2e-a262-4b83-a534-25a7c7ac9fa9)"><path d="M407.57,201.54,456.71,209a4.55,4.55,0,0,0,5.06-3.23h0Z" fill="#f7a091"></path></g><path d="M498.8,230.93,408,205.74s-4.2-3.05-.38-4.2l54.2,4.2s5-.76,5.35-8c0,0-1.15-9.54-.38-14.5,0,0,4.58-.76,7.25-2.67,0,0,.76,13.17,5.53,18.32,0,0,5.16,5.15,5.35,6.68h20.61a20.44,20.44,0,0,1,.95,13.93S503.19,229.22,498.8,230.93Z" fill="none" stroke="#351d66" stroke-miterlimit="10"></path><path d="M380.26,118.65c.49-3,3.55-17.2,17.83-17.34,0,0,15.2,1.43,16-8.16l2.08.32s-3.36,9-11.52,10.07c0,0,.58,9-3,13.69a6.24,6.24,0,0,1-6,2.29,58.51,58.51,0,0,0-15-.36A.44.44,0,0,1,380.26,118.65Z" fill="#aac8f9" stroke="#6259b0" stroke-miterlimit="10"></path><path d="M528.44,140.65a27.78,27.78,0,0,1-11.26.82s-5.63-.49-4.64,8.61l2.32,16.73s12.25-.33,12.75-15.07c0,0-1-6.34,3.67-7.45a1.51,1.51,0,0,1,1.73.89c.93,2.17,3.31,7.16,6.49,9.62a12.36,12.36,0,0,1,4,5.17,23.65,23.65,0,0,1,1.08,13.09.28.28,0,0,0,.52.18l9.8-20.34s3.31-6.13-3.48-8.78c0,0-2-1-7.28-3.14l-6-.33Z" fill="#7ddcf2"></path><g clip-path="url(#a5f12cd6-a63f-4df2-9456-9b8c0762240d)"><path d="M514.86,166.81s9.13-7.55,6.55-14.4c0,0-2.89-8.65,8.1-11.68,0,0-8.58,1.6-12.33.74,0,0-5.86-.12-4.64,8.61Z" fill="#69c4e1"></path></g><path d="M528.44,140.65a27.78,27.78,0,0,1-11.26.82s-5.63-.49-4.64,8.61l2.32,16.73s12.25-.33,12.75-15.07c0,0-1-6.34,3.67-7.45a1.51,1.51,0,0,1,1.73.89c.93,2.17,3.31,7.16,6.49,9.62a12.36,12.36,0,0,1,4,5.17,23.65,23.65,0,0,1,1.08,13.09.28.28,0,0,0,.52.18l9.8-20.34s3.31-6.13-3.48-8.78c0,0-2-1-7.28-3.14l-6-.33Z" fill="none" stroke="#351d66" stroke-miterlimit="10"></path><polygon points="424.87 202.75 419.3 198.17 427.99 196.2 440.4 204.02 424.87 202.75" fill="#f9c7a5" stroke="#351d66" stroke-miterlimit="10"></polygon><polygon points="436.96 193.34 441.73 204.21 450.13 204.98 443.26 191.62 436.96 193.34" fill="#f9c7a5" stroke="#351d66" stroke-miterlimit="10"></polygon><path d="M337.71,197s-2.31-2.64,5.28-8.58l160.71-46.2s7.59-.66,9.57,4.95c0,0-3.3,6.93-15.51,13.2L467.4,181.85,356.19,207.92S341,208.58,337.71,197Z" fill="#d54b4b" stroke="#351d66" stroke-miterlimit="10"></path><path d="M337.71,197s.33,10.23,6.27,10.56c0,0,10.89,5.94,61.38-6.27,0,0,49-10.15,82.75-26.69,0,0,24.5-10.27,27.47-20.5l-2.31-6.93s-2.64,6.6-15.51,13.2c0,0-38.61,21.45-105.93,35.64C391.83,196,344.64,206.93,337.71,197Z" fill="#f98181" stroke="#351d66" stroke-miterlimit="10"></path><ellipse cx="388.15" cy="140.99" rx="6.46" ry="16.15" transform="translate(173.33 493.68) rotate(-78.62)" fill="#f98181" stroke="#351d66" stroke-miterlimit="10"></ellipse><polygon points="572.85 397.37 572.85 409.2 596.52 409.2 596.52 424.85 631.26 424.85 631.26 409.58 657.22 409.58 657.22 397.75 572.85 397.37" fill="#251860"></polygon><polygon points="604.54 409.2 604.54 397.42 621.33 397.42 621.33 407.73 604.54 409.2" fill="#c9c6cc" stroke="#351d66" stroke-miterlimit="10"></polygon><path d="M631.26,424.85l3.81-.19,63,212.43,18-1.44L653.68,422.94l59-5.44L655.12,626.78,674,625.63l57.26-209.85,12.6-.57,63.55,211.57s16.32-1.72,17.18-1.72-63-212.14-63-212.14l27.48-1.72-.29-13.45,26.63-2.29-.43-11L661.8,397.75h-4.59v11.83h-26Z" fill="#c9c6cc" stroke="#351d66" stroke-miterlimit="10"></path><polygon points="648.24 626.29 655.12 626.78 712.66 417.5 705.34 418.23 648.24 626.29" fill="#251860"></polygon><polygon points="736.27 415.12 799.9 626.59 807.42 626.78 743.87 415.21 736.27 415.12" fill="#251860"></polygon><polygon points="627.49 424.56 690.71 637.21 698.06 637.09 635.08 424.66 627.49 424.56" fill="#251860"></polygon><rect x="577.24" y="536.88" width="11.74" height="11.74" fill="#c9c6cc" stroke="#351d66" stroke-miterlimit="10"></rect><rect x="615.34" y="536.34" width="10.42" height="12.34" fill="#c9c6cc" stroke="#351d66" stroke-miterlimit="10"></rect><path d="M547.18,57.06a59.71,59.71,0,0,1,6.16-1.55,7.52,7.52,0,0,1,8.55,4.86c2.58,7.6-1,20.17-1,20.17,3.43-2.58,9.73-4.87,9.73-4.87l.86-12.6c-3-6.23-12.62-9.55-17.24-10.83a23.68,23.68,0,0,0-4.11-.69,16.31,16.31,0,0,1-9-3.65c-5.44-7.44-12.31-5.73-12.31-5.73-9.73,1.72-7.16,12.31-7.16,12.31-3.71,3-3.53,11-3.33,13.92a.41.41,0,0,0,.75.2,26.89,26.89,0,0,0,4.3-11.83S531.72,63.93,547.18,57.06Z" fill="#8f2876" stroke="#351d66" stroke-miterlimit="10" data-primary="true"></path><ellipse cx="566.35" cy="84.03" rx="9.5" ry="6.34" transform="matrix(0.5, -0.87, 0.87, 0.5, 210.41, 532.49)" fill="#f9c7a5" stroke="#351d66" stroke-miterlimit="10"></ellipse><ellipse cx="533.82" cy="137.33" rx="5.22" ry="5.96" fill="#7ddcf2"></ellipse><g clip-path="url(#a1544e1d-cadb-46a3-b5ef-6f65e6f77eb0)"><path d="M533.42,143.31s6.07-3.59,1.35-11.79a5.74,5.74,0,0,1,4.16,6.63S538.59,143.2,533.42,143.31Z" fill="#69c4e1"></path></g><ellipse cx="533.82" cy="137.33" rx="5.22" ry="5.96" fill="none" stroke="#351d66" stroke-miterlimit="10"></ellipse><path d="M503.69,203.45a.34.34,0,0,0-.22.61c2,1.64,6.38,6.84,1.82,18.09,0,0-2.76,8.28-8.61,10.08a.18.18,0,0,0,0,.36l13.53,1.8a3.77,3.77,0,0,1,3.08,2.48c1.13,3.31,5.42,9.33,21.74,9.33,0,0,6.36,1.69,16.07-1.89a42.19,42.19,0,0,0,18.46-13.56L615,173.29s12-23.28-9.73-37.4c0,0-8-4.58-15.65-6.11l-45.81,68a6.77,6.77,0,0,1-6.93,2.88c-2.86-.57-7.29-.41-13.3,2.79Z" fill="#f9d067" data-secondary="true"></path><g clip-path="url(#ac53ff6e-954f-4c55-be85-6b9aaf487c7d)"><path d="M589.65,129.78s-15.56,30.08-10.11,39.92a16.29,16.29,0,0,1,2.21,9c-.39,5.48-2.18,13-8.45,18a48.68,48.68,0,0,0-13.46,16.06c-5.15,10.18-8.69,22.94,4.61,24.66L615,173.29s10-20.25-5-33.61C610,139.68,604.41,133.25,589.65,129.78Z" opacity="0.1"></path><path d="M523.61,203.45a30,30,0,0,1,3,9,22.27,22.27,0,0,1-.37,9.54,17.92,17.92,0,0,1-1.93,4.42,18.24,18.24,0,0,1-3.09,3.69,20.87,20.87,0,0,1-1.89,1.48c-.33.22-.65.46-1,.67l-1,.59a8.88,8.88,0,0,1-1.06.55l-1.08.5c-.73.31-1.49.57-2.23.84a26.65,26.65,0,0,0,7.94-5,20,20,0,0,0,2.92-3.63,17,17,0,0,0,1.81-4.28,19.81,19.81,0,0,0,.74-4.6,29.3,29.3,0,0,0-.23-4.68,31.55,31.55,0,0,0-1-4.62A34.34,34.34,0,0,0,523.61,203.45Z" fill="#f4bd31"></path></g><path d="M503.69,203.45a.34.34,0,0,0-.22.61c2,1.64,6.38,6.84,1.82,18.09,0,0-2.76,8.28-8.61,10.08a.18.18,0,0,0,0,.36l13.53,1.8a3.77,3.77,0,0,1,3.08,2.48c1.13,3.31,5.42,9.33,21.74,9.33,0,0,6.36,1.69,16.07-1.89a42.19,42.19,0,0,0,18.46-13.56L615,173.29s12-23.28-9.73-37.4c0,0-8-4.58-15.65-6.11l-45.81,68a6.77,6.77,0,0,1-6.93,2.88c-2.86-.57-7.29-.41-13.3,2.79Z" fill="none" stroke="#351d66" stroke-miterlimit="10"></path><path d="M223.26,283.52l-.19,11.07s-6.53-2-5.6-5.73C217.47,288.86,218,286.36,223.26,283.52Z" fill="#7ddcf2" stroke="#351d66" stroke-miterlimit="10"></path><path d="M259.3,291a35.34,35.34,0,0,0,4.88-4.87s2.58,3.92-1.05,8.38a13.5,13.5,0,0,0-1.67,2.55,12,12,0,0,0-1.36,4.11Z" fill="#7ddcf2" stroke="#351d66" stroke-miterlimit="10"></path><path d="M177,368.83l-11.74,53.25c-7.73,24.91,16.61,33.21,16.61,33.21,2.86-15.46,69.85-16.32,69.85-16.32,27.2-15.17-8.31-110.57-8.31-110.57l-32.25-25.13c-36.34,4-44.4,13.16-45.89,15.49a.11.11,0,0,0,.16.14c2.85-2.39,18.2-14,26.4,6.22a37.22,37.22,0,0,1,2.67,14.68C194.34,349.23,191.79,365.07,177,368.83Z" fill="#8f2876" data-primary="true"></path><g clip-path="url(#fae19131-ff6c-4d5a-8048-f994a915ec2b)"><g opacity="0.2"><path d="M176.35,372.73l-.4-.92c32.91-14.19,75.8-16.53,76.23-16.55l0,1C251.81,356.28,209.09,358.61,176.35,372.73Z"></path></g><g opacity="0.2"><path d="M164.5,425.56l-.75-.66c.21-.25,22.48-25.1,97.41-27.37l0,1C186.77,400.79,164.72,425.31,164.5,425.56Z"></path></g></g><path d="M177,368.83l-11.74,53.25c-7.73,24.91,16.61,33.21,16.61,33.21,2.86-15.46,69.85-16.32,69.85-16.32,27.2-15.17-8.31-110.57-8.31-110.57l-32.25-25.13c-36.34,4-44.4,13.16-45.89,15.49a.11.11,0,0,0,.16.14c2.85-2.39,18.2-14,26.4,6.22a37.22,37.22,0,0,1,2.67,14.68C194.34,349.23,191.79,365.07,177,368.83Z" fill="none" stroke="#351d66" stroke-miterlimit="10"></path><path d="M127.66,343s21.1,12.15,26.16,26.09l-2.77,0s-8.11-13.36-16.7-19.37c0,0-4.21-3.07-7.08-1.54,0,0-.36.4-.93-1.18A3.69,3.69,0,0,1,127.66,343Z" fill="none" stroke="#231f20" stroke-miterlimit="10" stroke-width="0.25"></path><path d="M138.09,336.39,127.66,343a95.32,95.32,0,0,1,15.94,12s8.36,7.69,10.22,14.1l12.05-.16s-7.49-16.13-12.8-21.75C153.07,347.21,145.37,338.58,138.09,336.39Z" fill="#8f2876" stroke="#351d66" stroke-miterlimit="10" data-primary="true"></path><path d="M127.27,348.18s-28.53,16-33.22,26.58c0,0-8.14,20,6.42,27.87a28.93,28.93,0,0,0,16.28,3.94H153l-7.15-35.76s-2-6.17,1-8.39C146.84,362.42,134.34,345.05,127.27,348.18Z" fill="#f9c7a5"></path><g clip-path="url(#b16cd691-bc3d-47a4-abcf-f0a70139913a)"><rect x="131.09" y="363.12" width="0.67" height="19.31" transform="translate(-258.24 439.13) rotate(-80.24)" fill="#f7a091"></rect><line x1="121.9" y1="371.14" x2="140.94" y2="374.41" fill="#f7a091"></line><path d="M125.76,349.08s13.6,4.15,15.18,25.33c0,0,.24-2.34,4.91-3.6,0,0-2.13-5.78,1-8.39,0,0-12.34-17.55-19.57-14.24Z" fill="#f7a091"></path></g><path d="M127.27,348.18s-28.53,16-33.22,26.58c0,0-8.14,20,6.42,27.87a28.93,28.93,0,0,0,16.28,3.94H153l-7.15-35.76s-2-6.17,1-8.39C146.84,362.42,134.34,345.05,127.27,348.18Z" fill="none" stroke="#351d66" stroke-miterlimit="10"></path><path d="M146.84,362.42s-.32,3.41,3.83,3.69c0,0,7,.83,18.24-4.68a11.66,11.66,0,0,0,1.49-.88c2.21-1.55,7.95-6.11,6.32-10.76l-1.81-.59Z" fill="none" stroke="#231f20" stroke-miterlimit="10" stroke-width="0.25"></path><path d="M269.68,300.26s30.44.2,35.88,23.81a209,209,0,0,1,1.54,22,20.51,20.51,0,0,0,1.78,8.13l21.8,49.19-35.4,28.14s5.44-16.94-4.54-40.85c0,0-21.36-39.72-24.91-65.25Z" fill="#8f2876" data-primary="true"></path><g clip-path="url(#aa584e96-56ab-4549-acc4-eb69a0d5a8ac)"><g opacity="0.2"><path d="M313,364.21c-13-7.12-37.49-7.26-37.74-7.26v-1c.25,0,24.95.14,38.22,7.38Z"></path></g><g opacity="0.2"><path d="M325.9,407.62c-7.83-5-31.32-7.35-31.56-7.37l.1-1c1,.1,24,2.36,32,7.52Z"></path></g></g><path d="M269.68,300.26s30.44.2,35.88,23.81a209,209,0,0,1,1.54,22,20.51,20.51,0,0,0,1.78,8.13l21.8,49.19-35.4,28.14s5.44-16.94-4.54-40.85c0,0-21.36-39.72-24.91-65.25Z" fill="none" stroke="#351d66" stroke-miterlimit="10"></path><path d="M317.66,373.88l13,29.47,5.52-.25s28.15-23.69,34.77-29.84l-20-43.68a1.62,1.62,0,0,1,.31-1.79c3.26-3.32,15.31-17.67,9.09-42.83l-2.72,6.13s-5-9-19.17,4c0,0-5,5.73,2.48,6.87l.57,1S320,304,322.25,310.14c0,0-.19,1.91,2.49,3.25,0,0-5.16,6.49,4.77,8,0,0-.58,3.82,2.86,5.35l-7.83.19s-1.71,5.15,1,8.2l5,27.68Z" fill="#f9c7a5"></path><g clip-path="url(#f6635782-3446-43e6-af02-64d166100302)"><path d="M329.68,321.69l-.35-.57c.3-.19,7.55-4.57,21.55-1.42l-.15.65C337,317.27,329.76,321.64,329.68,321.69Z" fill="#f7a091"></path><path d="M324.87,313.69l-.27-.61c.15-.06,14.6-6.25,25.21-1.09l-.29.6C339.18,307.57,325,313.63,324.87,313.69Z" fill="#f7a091"></path><path d="M355.26,304a22.83,22.83,0,0,0-13.63-.8l-.19-.64a23.58,23.58,0,0,1,14.08.82Z" fill="#f7a091"></path><rect x="340.01" y="298.91" width="8.6" height="0.67" transform="translate(-111.53 281.91) rotate(-38.82)" fill="#f7a091"></rect><path d="M330.46,362.82l-5-27.68s5.7-.46,8.12-7a.23.23,0,0,1,.45.09C334.07,333.69,333.84,352.61,330.46,362.82Z" fill="#f7a091"></path></g><path d="M317.66,373.88l13,29.47,5.52-.25s28.15-23.69,34.77-29.84l-20-43.68a1.62,1.62,0,0,1,.31-1.79c3.26-3.32,15.31-17.67,9.09-42.83l-2.72,6.13s-5-9-19.17,4c0,0-5,5.73,2.48,6.87l.57,1S320,304,322.25,310.14c0,0-.19,1.91,2.49,3.25,0,0-5.16,6.49,4.77,8,0,0-.58,3.82,2.86,5.35l-7.83.19s-1.71,5.15,1,8.2l5,27.68Z" fill="none" stroke="#351d66" stroke-miterlimit="10"></path><path d="M181.88,455.29l1.85,9.5L253.16,443v-4.87l-1.43.86S186.17,439.55,181.88,455.29Z" fill="#8f2876" data-primary="true"></path><g clip-path="url(#b2717dc6-5bf3-4891-9646-d044c8483d8b)"><path d="M183.73,464.79l-1.85-9.5s-1.52-13.73,69.85-16.32c0,0,1.13-.29,1.43-.86l-.27,2.44S190.14,446.38,183.73,464.79Z" opacity="0.2"></path></g><path d="M181.88,455.29l1.85,9.5L253.16,443v-4.87l-1.43.86S186.17,439.55,181.88,455.29Z" fill="none" stroke="#351d66" stroke-miterlimit="10"></path><path d="M183.73,464.79l-1,48.05,116-6.88s10.6-1.14,13.74-15.17c0,0,4-40.37-15.46-58.69,0,0-3.72-1.72-10.87.29Z" fill="#7ddcf2" stroke="#351d66" stroke-miterlimit="10"></path><ellipse cx="293.41" cy="468.26" rx="18.41" ry="34.36" transform="translate(-71.2 53.03) rotate(-9.21)" opacity="0.2"></ellipse><path d="M365.39,443.12s6.08,6.79,9.1,4.21l.13-.15c.29-.49,1.19-2.85-4.22-8.64Z" opacity="0.2"></path><path d="M286.18,496.23l27.49-8,22.14,57.07s27.48,3.06,38-8.59l-9.93-32.63-34.54-76.25a33.48,33.48,0,0,0-10,.57l-38.37,9.88s-11.16,12.59-4.29,39.08C276.64,477.34,278.83,488.69,286.18,496.23Z" fill="#f9c7a5"></path><g clip-path="url(#ac7fd78c-a832-42db-82dd-1f095c565b4c)"><path d="M286.56,436.78s-4.53,5-1.44,15.39a15,15,0,0,0,1.05,2.6l18.33,36.12-18.32,5.34s-12.79-13.07-11.55-39.6c0,0,.67-11.84,6.3-18.37Z" fill="#f7a091"></path></g><path d="M286.18,496.23l27.49-8,22.14,57.07s27.48,3.06,38-8.59l-9.93-32.63-34.54-76.25a33.48,33.48,0,0,0-10,.57l-38.37,9.88s-11.16,12.59-4.29,39.08C276.64,477.34,278.83,488.69,286.18,496.23Z" fill="none" stroke="#351d66" stroke-miterlimit="10"></path><path d="M355.3,598.45s-2.78-1.86-2.55,11.35l-.47,14.6a65.68,65.68,0,0,0,6,3s4.92,1.71,8,20.74a5.45,5.45,0,0,0,2.68,3.91,34,34,0,0,0,18.09,4.56,11.1,11.1,0,0,0,7.7-3.76c5.24-5.91,17.14-18.23,24-16.64a11.56,11.56,0,0,1,8.35,7.88s1.62-7.65-14.83-13l-18.08-33.37s4.17-12-6.72-12.51c0,0-20.63.69-19,9.73v5.1S359,601.23,355.3,598.45Z" fill="#8f2876" stroke="#351d66" stroke-miterlimit="10" data-primary="true"></path><polygon points="218.5 604.3 224.52 581.58 237.66 582.4 225.34 604.3 218.5 604.3" fill="#d2e1f9"></polygon><polygon points="211.93 603.48 215.21 586.23 219.87 598 218.5 604.3 211.93 603.48" fill="#aac8f9" stroke="#6259b0" stroke-miterlimit="10"></polygon><path d="M265.83,325.39S255.35,311,261.16,297.7a11.73,11.73,0,0,1,1.87-3,7.28,7.28,0,0,0,1-8.83s5.36,4.35,4.52,8.87c0,0-.8,3.74,1.17,5.49a8.08,8.08,0,0,1,1.88,2.24c1.48,2.79,3.74,8.65,1,15C272.53,317.52,269.68,323.21,265.83,325.39Z" fill="#7ddcf2"></path><g clip-path="url(#f017678e-12be-42e2-9d51-fedfdf70e1fa)"><path d="M265.83,325.39s-12.18-16.24-2.8-30.66a7.13,7.13,0,0,0,1.15-8.57s3.34,1.84,3.06,12.21a32.89,32.89,0,0,1-1.9,9.85C264.35,311.07,263.47,316.54,265.83,325.39Z" opacity="0.2"></path></g><path d="M265.83,325.39S255.35,311,261.16,297.7a11.73,11.73,0,0,1,1.87-3,7.28,7.28,0,0,0,1-8.83s5.36,4.35,4.52,8.87c0,0-.8,3.74,1.17,5.49a8.08,8.08,0,0,1,1.88,2.24c1.48,2.79,3.74,8.65,1,15C272.53,317.52,269.68,323.21,265.83,325.39Z" fill="none" stroke="#351d66" stroke-miterlimit="10"></path><path d="M222.5,294.27s18.07,5.19,19.91,24.26l1,9.87s-24.6-5.86-32.63-23.09a2.69,2.69,0,0,1,.73-3.09,6,6,0,0,0,1.52-1.81,9.84,9.84,0,0,0,.69-1.74,9.36,9.36,0,0,0-.13-5.32c-.67-2.27-.72-7,9.31-9.6a.09.09,0,0,1,.07.16C220.41,285.26,212.18,290.25,222.5,294.27Z" fill="#7ddcf2"></path><g clip-path="url(#a558380c-cbc5-41d6-87c8-c3d087c75efc)"><path d="M243.42,328.4s-12.2-6.17-18-14.56a16.39,16.39,0,0,1-2.77-9c-.07-3.64-1.28-10.32-9-11.47,0,0,1.62,5.93-2.08,8.87,0,0-2,2.21.34,5C211.86,307.18,216.55,320.22,243.42,328.4Z" opacity="0.2"></path></g><path d="M222.5,294.27s18.07,5.19,19.91,24.26l1,9.87s-24.6-5.86-32.63-23.09a2.69,2.69,0,0,1,.73-3.09,6,6,0,0,0,1.52-1.81,9.84,9.84,0,0,0,.69-1.74,9.36,9.36,0,0,0-.13-5.32c-.67-2.27-.72-7,9.31-9.6a.09.09,0,0,1,.07.16C220.41,285.26,212.18,290.25,222.5,294.27Z" fill="none" stroke="#351d66" stroke-miterlimit="10"></path><path d="M216.37,225.54l3.38-8.69A18,18,0,0,1,243,206.49a43.41,43.41,0,0,1,16.93,12Z" fill="#8f2876" stroke="#351d66" stroke-miterlimit="10" data-primary="true"></path><path d="M259.3,291a16.43,16.43,0,0,1-8.9,3.39c-8.43.52-16.27-6-21.13-16.15a54.23,54.23,0,0,1-5-19.89c-1.26-20.71,8.35-38.15,21.49-38.95s24.8,15.33,26.07,36C272.83,271.11,267.58,284.88,259.3,291Z" fill="#f9c7a5" stroke="#351d66" stroke-miterlimit="10"></path><ellipse cx="222.76" cy="262.71" rx="4.8" ry="7.62" transform="translate(-110.53 175.81) rotate(-35.09)" fill="#f9c7a5" stroke="#351d66" stroke-miterlimit="10"></ellipse><path d="M268.15,238.32c1.15,1.71,1.76,5.69,1.76,5.69a6.63,6.63,0,0,0,2.17-2.48,3.67,3.67,0,0,0,.32-2.48l-2.63-12.79a7.79,7.79,0,0,0-3.3-5.58c-20.75-9.45-50.1,4.86-50.1,4.86-4.86,2.15-4.72,5-4.72,5l3,14.89c1,4.44,2.72,4,2.72,4l3.57-4,5-5.73S254.69,230.3,268.15,238.32Z" fill="#8f2876" stroke="#351d66" stroke-miterlimit="10" data-primary="true"></path><path d="M219.24,255.89l-1.43-5.73a6.22,6.22,0,0,1,2-7.44s7.16-7.44,28.49-8.3c0,0,17.74-1.75,21.44,4a.23.23,0,0,1-.27.35c-3.22-1.18-19.44-6.26-41.93,1.66l.29,21.9A9.94,9.94,0,0,0,219.24,255.89Z" fill="#f9d067" stroke="#351d66" stroke-miterlimit="10" data-secondary="true"></path><path d="M331,405.76l57.06-47a26.34,26.34,0,0,1,17-6.14c5.44.06,11.45,1.85,15.32,8.17,0,0,8.3,13.74.86,23.76l-45,47.52s4-28.63-31.49-23.76l-6.93,7.39A59.44,59.44,0,0,1,331,405.76Z" fill="#f9c7a5"></path><g clip-path="url(#abb6c9a7-ad42-4b94-95d3-10fe1a978aa5)"><line x1="344.78" y1="408.34" x2="370.27" y2="381.1" fill="#f7a091"></line><polygon points="344.53 408.11 370.27 381.1 345.02 408.57 344.53 408.11" fill="#f7a091"></polygon></g><path d="M331,405.76l57.06-47a26.34,26.34,0,0,1,17-6.14c5.44.06,11.45,1.85,15.32,8.17,0,0,8.3,13.74.86,23.76l-45,47.52s4-28.63-31.49-23.76l-6.93,7.39A59.44,59.44,0,0,1,331,405.76Z" fill="none" stroke="#351d66" stroke-miterlimit="10"></path><path d="M317.55,440.12l27.23-31.78s17.46-3.47,26.55,6.32c0,0,5.78,5.68,4.94,17.44l-25.78,26.54s-1.42-8.72-13-9.61l-16.28-2.21a1.43,1.43,0,0,1-1.14-.86Z" fill="#c9c6cc"></path><g clip-path="url(#ffbde16c-4241-476c-b577-add9908e0450)"><path d="M333.4,421.43a39.07,39.07,0,0,1,10.85.2,30.91,30.91,0,0,1,10.32,3.49,21.68,21.68,0,0,1,4.37,3.31,19,19,0,0,1,3.38,4.31,24.21,24.21,0,0,1,3.07,10.38l-.25-1.33a12.48,12.48,0,0,0-.26-1.33,25.54,25.54,0,0,0-.74-2.59,21.5,21.5,0,0,0-2.26-4.86,21,21,0,0,0-7.65-7.31,31.29,31.29,0,0,0-10.07-3.57,43.91,43.91,0,0,0-5.35-.66A42.46,42.46,0,0,0,333.4,421.43Z" fill="#351d66"></path><path d="M338.33,416.07a27.18,27.18,0,0,1,11.14-.76,28,28,0,0,1,10.6,3.67,19.73,19.73,0,0,1,4.49,3.43,22.32,22.32,0,0,1,3.5,4.43,21.38,21.38,0,0,1,3.05,10.7A23.8,23.8,0,0,0,370,432.1a20.77,20.77,0,0,0-2.37-5,25.08,25.08,0,0,0-3.48-4.27,19.9,19.9,0,0,0-4.4-3.29l-1.19-.7-1.25-.6a22.87,22.87,0,0,0-2.55-1.07,31,31,0,0,0-10.89-1.75A27.19,27.19,0,0,0,338.33,416.07Z" fill="#351d66"></path></g><path d="M317.55,440.12l27.23-31.78s17.46-3.47,26.55,6.32c0,0,5.78,5.68,4.94,17.44l-25.78,26.54s-1.42-8.72-13-9.61l-16.28-2.21a1.43,1.43,0,0,1-1.14-.86Z" fill="none" stroke="#351d66" stroke-miterlimit="10"></path><path d="M297.25,452.43s-13.74,6.2-14.5,12.31c0,0,4.39-7.25,16.22-.38,0,0,4.77,2.48,17.37,11.64,0,0,4.58,5,28.05,10.69l23.1,7.44s13.17,3.63,10.3,12.6c0,0,6.59-7.64,1.48-16.8L327.6,464.36S309.85,448.52,297.25,452.43Z" fill="#fff" stroke="#351d66" stroke-miterlimit="10"></path><path d="M289.81,481.73s-12.41-7.07-7.06-17c0,0,3.24-7.06,16.22-.38L316.34,476a42.5,42.5,0,0,0,8.2,4.58s11.65,4.39,15.65,5l27.3,8.59s13,2.86,10.3,12.6c0,0-9.16,15.84-46.18,5.15,0,0-6.87-2.48-16.8-14.12a48.21,48.21,0,0,0-13.36-8.4A79.72,79.72,0,0,1,289.81,481.73Z" fill="#c9c6cc" stroke="#351d66" stroke-miterlimit="10"></path><path d="M313.43,465c0,4,4,7.13,7.53,9.05a31.6,31.6,0,0,0,7.07,2.78,391.62,391.62,0,0,1,40.22,13.22c7.44,4,11-.15,11-.15l-17.17-12c-4-2-4.16-3.72-4.16-3.72a136.53,136.53,0,0,0-7.45-15.55,13.45,13.45,0,0,0-11-9.5l-18.27-2.32a1.68,1.68,0,0,1-1.14-.86l-2.52-5.84c-18.36,4.45-20.3,12.31-20.3,12.31S311.42,453,313.43,465Z" fill="#8f2876" stroke="#351d66" stroke-miterlimit="10" data-primary="true"></path><path d="M72.94,547.05l14.65-46.38,146,15.8a10.15,10.15,0,0,1,9,10.68l.08,33.61a10.15,10.15,0,0,1-11.6,9.45Z" fill="#f9d067" data-secondary="true"></path><g clip-path="url(#a45b97b8-51bb-4158-b436-3211aec9bb65)"><path d="M72.94,547.05s34.88-33.24,112.12-32.14L87.59,500.67Z" opacity="0.2"></path></g><path d="M72.94,547.05l14.65-46.38,146,15.8a10.15,10.15,0,0,1,9,10.68l.08,33.61a10.15,10.15,0,0,1-11.6,9.45Z" fill="none" stroke="#351d66" stroke-miterlimit="10"></path><polygon points="254.07 635.77 243.46 635.52 193.07 493.91 64.82 472.92 86.16 473.71 207.36 492.22 231.98 570.09 254.07 635.77" fill="#d2e1f9"></polygon><polygon points="41.16 603.08 64.82 472.92 193.07 493.91 243.46 635.52 235.82 635.14 185.06 514.9 77.42 498.87 48.03 604.22 41.16 603.08" fill="#aac8f9" stroke="#6259b0" stroke-miterlimit="10"></polygon><path d="M168.81,415a10.84,10.84,0,0,1-5.31-5.37l-17.65-38.83s-2.23-5.16,1-8.39l28.07-13.22s6.41,1,9.23,9.23l13.89,35a10.76,10.76,0,0,1,.54,6.27,15.91,15.91,0,0,1-4.95,8.73s-14.86,10-23.83,6.92C169.79,415.31,169.64,415.39,168.81,415Z" fill="#f9d067" data-secondary="true"></path><g clip-path="url(#e1e4dccd-fb95-4794-9df6-ac3dd0d3e279)"><path d="M164.92,412.24s22.8-.26,34.08-16.15c0,0,1.2,9.67-6.25,13.68,0,0-14.6,9.31-19.32,7.87C173.43,417.64,168.14,418,164.92,412.24Z" opacity="0.2"></path></g><path d="M168.81,415a10.84,10.84,0,0,1-5.31-5.37l-17.65-38.83s-2.23-5.16,1-8.39l28.07-13.22s6.41,1,9.23,9.23l13.89,35a10.76,10.76,0,0,1,.54,6.27,15.91,15.91,0,0,1-4.95,8.73s-14.86,10-23.83,6.92C169.79,415.31,169.64,415.39,168.81,415Z" fill="none" stroke="#351d66" stroke-miterlimit="10"></path><path d="M145.85,370.81s.53,1.89,4.39,3.17c0,0,4.58,2.29,2.43,6.45a3.18,3.18,0,0,1-.72,1.36,2.05,2.05,0,0,0-.13,2.78,5.48,5.48,0,0,0,2.82,1.68,8.57,8.57,0,0,0,3.11.22c2.43-.23,8.75-.4,8.52,4.12,0,0,.74,3.18-3.34,3.88a.4.4,0,0,0,0,.78,26.27,26.27,0,0,0,6.55.13,3.79,3.79,0,0,1,2.15.39c.9.5,1.78,1.5,1.23,3.55a5,5,0,0,1-3.8,4.06.94.94,0,0,0-.62,1.24c.61,1.62,1.22,4.72-2.31,5.87,0,0-15.6,3-15.46-9,0,0-5.73-1.43-4.58-9.16,0,0-5.3-2.15-3-11.17C143.08,381.14,136.45,373.22,145.85,370.81Z" fill="#f9c7a5"></path><g clip-path="url(#b61ce04d-b847-4197-84d5-5bf280e73c8b)"><rect x="145.69" y="378.54" width="0.67" height="5.93" transform="translate(-250.35 480.26) rotate(-83.05)" fill="#f7a091"></rect><path d="M154.88,394.19a29.68,29.68,0,0,1-8.9-1.57l.22-.63c.06,0,6,2.12,11,1.37l.1.66A16.49,16.49,0,0,1,154.88,394.19Z" fill="#f7a091"></path><path d="M162.32,404a34,34,0,0,1-11.78-2.25l.26-.62a32.56,32.56,0,0,0,13.51,2.13l.05.66C163.67,404,163,404,162.32,404Z" fill="#f7a091"></path></g><path d="M145.85,370.81s.53,1.89,4.39,3.17c0,0,4.58,2.29,2.43,6.45a3.18,3.18,0,0,1-.72,1.36,2.05,2.05,0,0,0-.13,2.78,5.48,5.48,0,0,0,2.82,1.68,8.57,8.57,0,0,0,3.11.22c2.43-.23,8.75-.4,8.52,4.12,0,0,.74,3.18-3.34,3.88a.4.4,0,0,0,0,.78,26.27,26.27,0,0,0,6.55.13,3.79,3.79,0,0,1,2.15.39c.9.5,1.78,1.5,1.23,3.55a5,5,0,0,1-3.8,4.06.94.94,0,0,0-.62,1.24c.61,1.62,1.22,4.72-2.31,5.87,0,0-15.6,3-15.46-9,0,0-5.73-1.43-4.58-9.16,0,0-5.3-2.15-3-11.17C143.08,381.14,136.45,373.22,145.85,370.81Z" fill="none" stroke="#351d66" stroke-miterlimit="10"></path><ellipse cx="160.19" cy="353.66" rx="16.24" ry="6.56" transform="translate(-133.53 99.77) rotate(-24.79)" fill="#c9c6cc" stroke="#351d66" stroke-miterlimit="10"></ellipse><path d="M173.8,348.7c-2.24-2.22-8.6-1.77-15.12,1.24-7,3.24-11.66,8.26-10.62,11.4a2.7,2.7,0,0,1-.6-.84c-1.45-3.12,3.25-8.36,10.5-11.7s14.28-3.53,15.72-.42A1.75,1.75,0,0,1,173.8,348.7Z" fill="#a7a9ac"></path><path d="M151.24,355.57l10.69.76s-5.92,5.53-11.07,4C150.86,360.34,148,360.91,151.24,355.57Z" fill="#a7a9ac"></path><path d="M343.32,180.53s-.66,1.65-.33,7.92c0,0,1,7.26,7.26,6.93,0,0,15.51,5.28,63.36-8.25,0,0,57.09-13.53,84.48-31.68,0,0,11.66-6.76,2.86-18.89Z" fill="#aac8f9" stroke="#6259b0" stroke-miterlimit="10"></path><ellipse cx="421.84" cy="160.16" rx="82.56" ry="14.68" transform="translate(-28.18 127.27) rotate(-16.61)" fill="#aac8f9" stroke="#6259b0" stroke-miterlimit="10"></ellipse><ellipse cx="421.98" cy="161.21" rx="70.48" ry="10.69" transform="translate(-28.47 127.36) rotate(-16.61)" fill="#d2e1f9"></ellipse><path d="M378,172.72s3.72-9.73,38.07-18.61a132.59,132.59,0,0,0,18.9-4.29s43.23-14.6,46.66-8c0,0-2,3.44-10,5.73,0,0,5.73,3.15-12.88,9.16,0,0-29.77,12.88-58.12,16.6,0,0-25.8,7.82-32.42,6.65a.94.94,0,0,1-.43-1.63C369,177.21,371.84,175.25,378,172.72Z" fill="#fff"></path><path d="M362.62,176a.67.67,0,0,1-.34-1.18,21.39,21.39,0,0,1,6.54-3.15s4.84-1.76,7.38-1.29a.67.67,0,0,1,.21,1.24C374,173.05,367.6,176.46,362.62,176Z" fill="#fff"></path><ellipse cx="448.83" cy="151.73" rx="18.96" ry="3.67" transform="translate(-24.64 134.64) rotate(-16.61)" fill="#aac8f9" stroke="#6259b0" stroke-miterlimit="10"></ellipse><path d="M402,170.15s12.89-8.31,16.61-27.2C418.64,143,449.56,160.13,402,170.15Z" fill="#aac8f9" stroke="#6259b0" stroke-miterlimit="10"></path><ellipse cx="241.2" cy="258.48" rx="1.96" ry="3.26" fill="#351d66"></ellipse><ellipse cx="261.4" cy="257.59" rx="3.26" ry="1.96" transform="translate(-5.55 509.41) rotate(-87.91)" fill="#351d66"></ellipse><path d="M253.28,259.5s7.55,9,2.07,10.85" fill="none" stroke="#351d66" stroke-miterlimit="10"></path><path d="M242.83,274s7.34,4.92,11.92,3.58" fill="none" stroke="#351d66" stroke-miterlimit="10"></path><ellipse cx="542.11" cy="78" rx="1.96" ry="3.26" fill="#351d66"></ellipse><ellipse cx="521.91" cy="77.11" rx="1.96" ry="3.26" transform="translate(-2.47 19.1) rotate(-2.09)" fill="#351d66"></ellipse><path d="M530,79s-7.55,9-2.07,10.85" fill="none" stroke="#351d66" stroke-miterlimit="10"></path><path d="M540.48,93.5s-7.35,4.92-11.93,3.58" fill="none" stroke="#351d66" stroke-miterlimit="10"></path></svg>