<svg xmlns="http://www.w3.org/2000/svg" xmlns:xlink="http://www.w3.org/1999/xlink" width="865.76" height="682.89" xmlns:v="https://vecta.io/nano">
    <style>
        <![CDATA[.B{stroke-miterlimit:10}.C{stroke:#351d66}.D{fill:none}.E{fill:#f9c7a5}.F{fill:#c9c6cc}.G{fill:#f9d067}.H{fill:#8f2876}.I{opacity:.2}.J{fill:#7ddcf2}.K{fill:#251860}.L{fill:#f7a091}.M{fill:#aac8f9}.N{stroke:#6259b0}.O{fill:#d2e1f9}.P{fill:#351d66}.Q{fill:#69c4e1}]]>
    </style>
    <defs>
        <clipPath id="A">
            <path d="M815.01 375.03v9.46l-153.22 13.26-363.97-2.29 3.75-8.06 359.56.33 153.88-12.7z" class="B C F" />
        </clipPath>
        <clipPath id="B">
            <path d="M89.59,481,73.14,413.55a8.45,8.45,0,0,1,9.56-10.34l32.57,5.26a6.76,6.76,0,0,1,5.5,5.15L138.84,492Z" class="B C G" />
        </clipPath>
        <clipPath id="C">
            <path d="M212.89,510l1.91,4.58,16.25,55.66,175.62-1a8.65,8.65,0,0,0,8.6-8.58l.26-34.74a9.17,9.17,0,0,0-7.72-9.12l-35.36-5.63-52.58-5.73Z" class="B C G" />
        </clipPath>
        <clipPath id="D">
            <path d="M335.81,545.28l20.34,55.5A54.5,54.5,0,0,0,391.68,594l-17.89-57.35Z" class="B C F" />
        </clipPath>
        <clipPath id="E">
            <path d="M127.27 348.19a.33.33 0 0 1-.43-.13 3.71 3.71 0 0 1 .82-5l35-22.24a22.75 22.75 0 0 0 3.53-2.82 18.18 18.18 0 0 1 2.76-2.17 20.14 20.14 0 0 1 28.3 7.07c3.45 6 5.91 13.9 3.09 22.63 0 0-8.58 25.17-23.31 23.33l-26 .26s-15.33-24.66-23.76-20.93z" class="B C H" />
        </clipPath>
        <clipPath id="F">
            <path d="M299.09 312.14s30.61 21.33 42.41 37.64c0 0-14.81 18.58-23.84 24.1l-10.58-23.79s1.29-29.42-7.99-37.95z" class="B C H" />
        </clipPath>
        <clipPath id="G">
            <path d="M223.59,269.33l-.66,41.72s22.85,2.32,37.75-1l-1.33-20.53-32.21-20.59Z" class="B C E" />
        </clipPath>
        <clipPath id="H">
            <path d="M547.65 349.17a4.69 4.69 0 0 1-.79.49c-4.14 2.07-11.3-1.5-16.58-8.43-5.65-7.4-7-15.84-3.06-18.85a5.54 5.54 0 0 1 3.65-1.06c4.11.11 9.52 3.49 13.72 9 5.64 7.4 7.01 15.84 3.06 18.85z" class="B C F" />
        </clipPath>
        <clipPath id="I">
            <path fill="#fff" d="M420.93 292.96h229.6l20.62-133.41H443.26l-22.33 133.41z" />
        </clipPath>
        <clipPath id="J">
            <path d="M491.79 248.53l-2.53 45.92h109.93l-17.36-44.37-90.04-1.55z" class="B C G" />
        </clipPath>
        <clipPath id="K">
            <path d="M581.82 250L615 173.29s19.15-35.17-31.93-44.78l-66 3s-24.62 2.86-32.06 14.6c0 0 8.44 84.71 6.73 102.42a1.49 1.49 0 0 0 1.08 1.59c6.7 1.94 40 10.36 89-.12z" class="B C G" />
        </clipPath>
        <clipPath id="L">
            <path d="M441.54 122.72l2.14 11.28-1 2.8 4.58 4.39 24.43-11.45-1.34-3.06-1.48-1.09-7.49-14.37s-1.91-6.87-13.17-14.12l-17-11.26s-13.17-8.4-25.2-11.45c0 0-9.35-4.58-9.35 1.33 0 0-1.68 2.85 6.9 4.47a.28.28 0 0 1 0 .55c-4.21.62-13.94 2.63-12.44 7.58 0 0 1 3.19 7 .75a7.79 7.79 0 0 1 2.9-.56h3.89a.2.2 0 0 1 .16.31c-1.1 1.59-5.74 9 0 13.24 0 0 5.53.58 4.58-3.62 0 0-.28-7.59 5-9.39a7.13 7.13 0 0 1 4.86.19c3.1 1.19 10.09 4.35 12.44 9.2 3.05 6.3-10.12 4.39-10.12 4.39l-11.11-2.15s-4.65-.28-5.48 2.46a2.71 2.71 0 0 0 1.51 3.18l15.85 7.53s14.22 8.39 18.94 8.87z" class="B C E" />
        </clipPath>
        <clipPath id="M">
            <path d="M529,117.29s-7,3.52-8.28,8.11a5.46,5.46,0,0,1-1.29,2.31,7.72,7.72,0,0,0-1.89,7s.75,9,29.16,6c0,0,25.92-1,36.39-12.21l-7.48-10.72a12.46,12.46,0,0,0-11.51-5.51Z" class="B C J" />
        </clipPath>
        <clipPath id="N">
            <path d="M529.42,112.05a72,72,0,0,1-1.82,10.79,7.26,7.26,0,0,0-.29,1.46c-.17,1.92-.27,6.61,2.56,7.67a64.63,64.63,0,0,1,7,1,4.59,4.59,0,0,0,3.79-.81c2.14-1.64,6.49-5.12,16.71-8.48a10.49,10.49,0,0,0,6.71-11.41l1.11-20.1-2.29-3.44Z" class="B C E" />
        </clipPath>
        <clipPath id="O">
            <path d="M498.8 230.93L408 205.74s-4.2-3.05-.38-4.2l54.2 4.2s5-.76 5.35-8c0 0-1.15-9.54-.38-14.5 0 0 4.58-.76 7.25-2.67 0 0 .76 13.17 5.53 18.32 0 0 5.16 5.15 5.35 6.68h20.61a20.44 20.44 0 0 1 .95 13.93s-3.29 9.72-7.68 11.43z" class="B C E" />
        </clipPath>
        <clipPath id="P">
            <path d="M528.44,140.65a27.78,27.78,0,0,1-11.26.82s-5.63-.49-4.64,8.61l2.32,16.73s12.25-.33,12.75-15.07c0,0-1-6.34,3.67-7.45a1.51,1.51,0,0,1,1.73.89c.93,2.17,3.31,7.16,6.49,9.62a12.36,12.36,0,0,1,4,5.17,23.65,23.65,0,0,1,1.08,13.09.28.28,0,0,0,.52.18l9.8-20.34s3.31-6.13-3.48-8.78c0,0-2-1-7.28-3.14l-6-.33Z" class="B C J" />
        </clipPath>
        <clipPath id="Q">
            <ellipse cx="533.82" cy="137.33" rx="5.22" ry="5.96" class="C J" />
        </clipPath>
        <clipPath id="R">
            <path d="M503.69,203.45a.34.34,0,0,0-.22.61c2,1.64,6.38,6.84,1.82,18.09,0,0-2.76,8.28-8.61,10.08a.18.18,0,0,0,0,.36l13.53,1.8a3.77,3.77,0,0,1,3.08,2.48c1.13,3.31,5.42,9.33,21.74,9.33,0,0,6.36,1.69,16.07-1.89a42.19,42.19,0,0,0,18.46-13.56L615,173.29s12-23.28-9.73-37.4c0,0-8-4.58-15.65-6.11l-45.81,68a6.77,6.77,0,0,1-6.93,2.88c-2.86-.57-7.29-.41-13.3,2.79Z" class="B C G" />
        </clipPath>
        <clipPath id="S">
            <path d="M177 368.83l-11.74 53.25c-7.73 24.91 16.61 33.21 16.61 33.21 2.86-15.46 69.85-16.32 69.85-16.32 27.2-15.17-8.31-110.57-8.31-110.57l-32.25-25.13c-36.34 4-44.4 13.16-45.89 15.49a.11.11 0 0 0 .16.14c2.85-2.39 18.2-14 26.4 6.22a37.22 37.22 0 0 1 2.67 14.68c-.16 9.43-2.71 25.27-17.5 29.03z" class="B C H" />
        </clipPath>
        <clipPath id="T">
            <path d="M127.27 348.18s-28.53 16-33.22 26.58c0 0-8.14 20 6.42 27.87a28.93 28.93 0 0 0 16.28 3.94H153l-7.15-35.76s-2-6.17 1-8.39c-.01 0-12.51-17.37-19.58-14.24z" class="B C E" />
        </clipPath>
        <clipPath id="U">
            <path d="M269.68,300.26s30.44.2,35.88,23.81a209,209,0,0,1,1.54,22,20.51,20.51,0,0,0,1.78,8.13l21.8,49.19-35.4,28.14s5.44-16.94-4.54-40.85c0,0-21.36-39.72-24.91-65.25Z" class="B C H" />
        </clipPath>
        <clipPath id="V">
            <path d="M317.66 373.88l13 29.47 5.52-.25 34.77-29.84-20-43.68a1.62 1.62 0 0 1 .31-1.79c3.26-3.32 15.31-17.67 9.09-42.83l-2.72 6.13s-5-9-19.17 4c0 0-5 5.73 2.48 6.87l.57 1S320 304 322.25 310.14c0 0-.19 1.91 2.49 3.25 0 0-5.16 6.49 4.77 8 0 0-.58 3.82 2.86 5.35l-7.83.19s-1.71 5.15 1 8.2l5 27.68z" class="B C E" />
        </clipPath>
        <clipPath id="W">
            <path d="M181.88 455.29l1.85 9.5L253.16 443v-4.87l-1.43.86s-65.56.56-69.85 16.3z" class="B C H" />
        </clipPath>
        <clipPath id="X">
            <path d="M286.18 496.23l27.49-8 22.14 57.07s27.48 3.06 38-8.59l-9.93-32.63-34.54-76.25a33.48 33.48 0 0 0-10 .57l-38.37 9.88s-11.16 12.59-4.29 39.08c-.04-.02 2.15 11.33 9.5 18.87z" class="B C E" />
        </clipPath>
        <clipPath id="Y">
            <path d="M265.83 325.39s-10.48-14.39-4.67-27.69a11.73 11.73 0 0 1 1.87-3 7.28 7.28 0 0 0 1-8.83s5.36 4.35 4.52 8.87c0 0-.8 3.74 1.17 5.49a8.08 8.08 0 0 1 1.88 2.24c1.48 2.79 3.74 8.65 1 15-.07.05-2.92 5.74-6.77 7.92z" class="B C J" />
        </clipPath>
        <clipPath id="Z">
            <path d="M222.5 294.27s18.07 5.19 19.91 24.26l1 9.87s-24.6-5.86-32.63-23.09a2.69 2.69 0 0 1 .73-3.09 6 6 0 0 0 1.52-1.81 9.84 9.84 0 0 0 .69-1.74 9.36 9.36 0 0 0-.13-5.32c-.67-2.27-.72-7 9.31-9.6a.09.09 0 0 1 .07.16c-2.56 1.35-10.79 6.34-.47 10.36z" class="B C J" />
        </clipPath>
        <clipPath id="a">
            <path d="M331 405.76l57.06-47a26.34 26.34 0 0 1 17-6.14c5.44.06 11.45 1.85 15.32 8.17 0 0 8.3 13.74.86 23.76l-45 47.52s4-28.63-31.49-23.76l-6.93 7.39a59.44 59.44 0 0 1-6.82-9.94z" class="B C E" />
        </clipPath>
        <clipPath id="b">
            <path d="M317.55,440.12l27.23-31.78s17.46-3.47,26.55,6.32c0,0,5.78,5.68,4.94,17.44l-25.78,26.54s-1.42-8.72-13-9.61l-16.28-2.21a1.43,1.43,0,0,1-1.14-.86Z" class="B C F" />
        </clipPath>
        <clipPath id="c">
            <path d="M72.94,547.05l14.65-46.38,146,15.8a10.15,10.15,0,0,1,9,10.68l.08,33.61a10.15,10.15,0,0,1-11.6,9.45Z" class="B C G" />
        </clipPath>
        <clipPath id="d">
            <path d="M168.81 415a10.84 10.84 0 0 1-5.31-5.37l-17.65-38.83s-2.23-5.16 1-8.39l28.07-13.22s6.41 1 9.23 9.23l13.89 35a10.76 10.76 0 0 1 .54 6.27 15.91 15.91 0 0 1-4.95 8.73s-14.86 10-23.83 6.92c-.01-.03-.16.05-.99-.34z" class="B C G" />
        </clipPath>
        <clipPath id="e">
            <path d="M145.85 370.81s.53 1.89 4.39 3.17c0 0 4.58 2.29 2.43 6.45a3.18 3.18 0 0 1-.72 1.36 2.05 2.05 0 0 0-.13 2.78 5.48 5.48 0 0 0 2.82 1.68 8.57 8.57 0 0 0 3.11.22c2.43-.23 8.75-.4 8.52 4.12 0 0 .74 3.18-3.34 3.88a.4.4 0 0 0 0 .78 26.27 26.27 0 0 0 6.55.13 3.79 3.79 0 0 1 2.15.39c.9.5 1.78 1.5 1.23 3.55a5 5 0 0 1-3.8 4.06.94.94 0 0 0-.62 1.24c.61 1.62 1.22 4.72-2.31 5.87 0 0-15.6 3-15.46-9 0 0-5.73-1.43-4.58-9.16 0 0-5.3-2.15-3-11.17-.01-.02-6.64-7.94 2.76-10.35z" class="B C E" />
        </clipPath>
        <path id="f" d="M89.59,481,73.14,413.55a8.45,8.45,0,0,1,9.56-10.34l32.57,5.26a6.76,6.76,0,0,1,5.5,5.15L138.84,492Z" />
        <path id="g" d="M212.89,510l1.91,4.58,16.25,55.66,175.62-1a8.65,8.65,0,0,0,8.6-8.58l.26-34.74a9.17,9.17,0,0,0-7.72-9.12l-35.36-5.63-52.58-5.73Z" />
        <path id="h" d="M127.27 348.19a.33.33 0 0 1-.43-.13 3.71 3.71 0 0 1 .82-5l35-22.24a22.75 22.75 0 0 0 3.53-2.82 18.18 18.18 0 0 1 2.76-2.17 20.14 20.14 0 0 1 28.3 7.07c3.45 6 5.91 13.9 3.09 22.63 0 0-8.58 25.17-23.31 23.33l-26 .26s-15.33-24.66-23.76-20.93z" />
        <path id="i" d="M299.09 312.14s30.61 21.33 42.41 37.64c0 0-14.81 18.58-23.84 24.1l-10.58-23.79s1.29-29.42-7.99-37.95z" />
        <path id="j" d="M547.65 349.17a4.69 4.69 0 0 1-.79.49c-4.14 2.07-11.3-1.5-16.58-8.43-5.65-7.4-7-15.84-3.06-18.85a5.54 5.54 0 0 1 3.65-1.06c4.11.11 9.52 3.49 13.72 9 5.64 7.4 7.01 15.84 3.06 18.85z" />
        <path id="k" d="M581.82 250L615 173.29s19.15-35.17-31.93-44.78l-66 3s-24.62 2.86-32.06 14.6c0 0 8.44 84.71 6.73 102.42a1.49 1.49 0 0 0 1.08 1.59c6.7 1.94 40 10.36 89-.12z" />
        <path id="l" d="M441.54 122.72l2.14 11.28-1 2.8 4.58 4.39 24.43-11.45-1.34-3.06-1.48-1.09-7.49-14.37s-1.91-6.87-13.17-14.12l-17-11.26s-13.17-8.4-25.2-11.45c0 0-9.35-4.58-9.35 1.33 0 0-1.68 2.85 6.9 4.47a.28.28 0 0 1 0 .55c-4.21.62-13.94 2.63-12.44 7.58 0 0 1 3.19 7 .75a7.79 7.79 0 0 1 2.9-.56h3.89a.2.2 0 0 1 .16.31c-1.1 1.59-5.74 9 0 13.24 0 0 5.53.58 4.58-3.62 0 0-.28-7.59 5-9.39a7.13 7.13 0 0 1 4.86.19c3.1 1.19 10.09 4.35 12.44 9.2 3.05 6.3-10.12 4.39-10.12 4.39l-11.11-2.15s-4.65-.28-5.48 2.46a2.71 2.71 0 0 0 1.51 3.18l15.85 7.53s14.22 8.39 18.94 8.87z" />
        <path id="m" d="M529,117.29s-7,3.52-8.28,8.11a5.46,5.46,0,0,1-1.29,2.31,7.72,7.72,0,0,0-1.89,7s.75,9,29.16,6c0,0,25.92-1,36.39-12.21l-7.48-10.72a12.46,12.46,0,0,0-11.51-5.51Z" />
        <path id="n" d="M529.42,112.05a72,72,0,0,1-1.82,10.79,7.26,7.26,0,0,0-.29,1.46c-.17,1.92-.27,6.61,2.56,7.67a64.63,64.63,0,0,1,7,1,4.59,4.59,0,0,0,3.79-.81c2.14-1.64,6.49-5.12,16.71-8.48a10.49,10.49,0,0,0,6.71-11.41l1.11-20.1-2.29-3.44Z" />
        <path id="o" d="M498.8 230.93L408 205.74s-4.2-3.05-.38-4.2l54.2 4.2s5-.76 5.35-8c0 0-1.15-9.54-.38-14.5 0 0 4.58-.76 7.25-2.67 0 0 .76 13.17 5.53 18.32 0 0 5.16 5.15 5.35 6.68h20.61a20.44 20.44 0 0 1 .95 13.93s-3.29 9.72-7.68 11.43z" />
        <path id="p" d="M528.44,140.65a27.78,27.78,0,0,1-11.26.82s-5.63-.49-4.64,8.61l2.32,16.73s12.25-.33,12.75-15.07c0,0-1-6.34,3.67-7.45a1.51,1.51,0,0,1,1.73.89c.93,2.17,3.31,7.16,6.49,9.62a12.36,12.36,0,0,1,4,5.17,23.65,23.65,0,0,1,1.08,13.09.28.28,0,0,0,.52.18l9.8-20.34s3.31-6.13-3.48-8.78c0,0-2-1-7.28-3.14l-6-.33Z" />
        <path id="q" d="M503.69,203.45a.34.34,0,0,0-.22.61c2,1.64,6.38,6.84,1.82,18.09,0,0-2.76,8.28-8.61,10.08a.18.18,0,0,0,0,.36l13.53,1.8a3.77,3.77,0,0,1,3.08,2.48c1.13,3.31,5.42,9.33,21.74,9.33,0,0,6.36,1.69,16.07-1.89a42.19,42.19,0,0,0,18.46-13.56L615,173.29s12-23.28-9.73-37.4c0,0-8-4.58-15.65-6.11l-45.81,68a6.77,6.77,0,0,1-6.93,2.88c-2.86-.57-7.29-.41-13.3,2.79Z" />
        <path id="r" d="M177 368.83l-11.74 53.25c-7.73 24.91 16.61 33.21 16.61 33.21 2.86-15.46 69.85-16.32 69.85-16.32 27.2-15.17-8.31-110.57-8.31-110.57l-32.25-25.13c-36.34 4-44.4 13.16-45.89 15.49a.11.11 0 0 0 .16.14c2.85-2.39 18.2-14 26.4 6.22a37.22 37.22 0 0 1 2.67 14.68c-.16 9.43-2.71 25.27-17.5 29.03z" />
        <path id="s" d="M127.27 348.18s-28.53 16-33.22 26.58c0 0-8.14 20 6.42 27.87a28.93 28.93 0 0 0 16.28 3.94H153l-7.15-35.76s-2-6.17 1-8.39c-.01 0-12.51-17.37-19.58-14.24z" />
        <path id="t" d="M269.68,300.26s30.44.2,35.88,23.81a209,209,0,0,1,1.54,22,20.51,20.51,0,0,0,1.78,8.13l21.8,49.19-35.4,28.14s5.44-16.94-4.54-40.85c0,0-21.36-39.72-24.91-65.25Z" />
        <path id="u" d="M317.66 373.88l13 29.47 5.52-.25 34.77-29.84-20-43.68a1.62 1.62 0 0 1 .31-1.79c3.26-3.32 15.31-17.67 9.09-42.83l-2.72 6.13s-5-9-19.17 4c0 0-5 5.73 2.48 6.87l.57 1S320 304 322.25 310.14c0 0-.19 1.91 2.49 3.25 0 0-5.16 6.49 4.77 8 0 0-.58 3.82 2.86 5.35l-7.83.19s-1.71 5.15 1 8.2l5 27.68z" />
        <path id="v" d="M286.18 496.23l27.49-8 22.14 57.07s27.48 3.06 38-8.59l-9.93-32.63-34.54-76.25a33.48 33.48 0 0 0-10 .57l-38.37 9.88s-11.16 12.59-4.29 39.08c-.04-.02 2.15 11.33 9.5 18.87z" />
        <path id="w" d="M265.83 325.39s-10.48-14.39-4.67-27.69a11.73 11.73 0 0 1 1.87-3 7.28 7.28 0 0 0 1-8.83s5.36 4.35 4.52 8.87c0 0-.8 3.74 1.17 5.49a8.08 8.08 0 0 1 1.88 2.24c1.48 2.79 3.74 8.65 1 15-.07.05-2.92 5.74-6.77 7.92z" />
        <path id="x" d="M222.5 294.27s18.07 5.19 19.91 24.26l1 9.87s-24.6-5.86-32.63-23.09a2.69 2.69 0 0 1 .73-3.09 6 6 0 0 0 1.52-1.81 9.84 9.84 0 0 0 .69-1.74 9.36 9.36 0 0 0-.13-5.32c-.67-2.27-.72-7 9.31-9.6a.09.09 0 0 1 .07.16c-2.56 1.35-10.79 6.34-.47 10.36z" />
        <path id="y" d="M331 405.76l57.06-47a26.34 26.34 0 0 1 17-6.14c5.44.06 11.45 1.85 15.32 8.17 0 0 8.3 13.74.86 23.76l-45 47.52s4-28.63-31.49-23.76l-6.93 7.39a59.44 59.44 0 0 1-6.82-9.94z" />
        <path id="z" d="M317.55,440.12l27.23-31.78s17.46-3.47,26.55,6.32c0,0,5.78,5.68,4.94,17.44l-25.78,26.54s-1.42-8.72-13-9.61l-16.28-2.21a1.43,1.43,0,0,1-1.14-.86Z" />
        <path id="AA" d="M72.94,547.05l14.65-46.38,146,15.8a10.15,10.15,0,0,1,9,10.68l.08,33.61a10.15,10.15,0,0,1-11.6,9.45Z" />
        <path id="AB" d="M168.81 415a10.84 10.84 0 0 1-5.31-5.37l-17.65-38.83s-2.23-5.16 1-8.39l28.07-13.22s6.41 1 9.23 9.23l13.89 35a10.76 10.76 0 0 1 .54 6.27 15.91 15.91 0 0 1-4.95 8.73s-14.86 10-23.83 6.92c-.01-.03-.16.05-.99-.34z" />
        <path id="AC" d="M145.85 370.81s.53 1.89 4.39 3.17c0 0 4.58 2.29 2.43 6.45a3.18 3.18 0 0 1-.72 1.36 2.05 2.05 0 0 0-.13 2.78 5.48 5.48 0 0 0 2.82 1.68 8.57 8.57 0 0 0 3.11.22c2.43-.23 8.75-.4 8.52 4.12 0 0 .74 3.18-3.34 3.88a.4.4 0 0 0 0 .78 26.27 26.27 0 0 0 6.55.13 3.79 3.79 0 0 1 2.15.39c.9.5 1.78 1.5 1.23 3.55a5 5 0 0 1-3.8 4.06.94.94 0 0 0-.62 1.24c.61 1.62 1.22 4.72-2.31 5.87 0 0-15.6 3-15.46-9 0 0-5.73-1.43-4.58-9.16 0 0-5.3-2.15-3-11.17-.01-.02-6.64-7.94 2.76-10.35z" />
    </defs>
    <path d="M48.03 604.22l6.46.95 33.1-104.5-10.17-1.8-29.39 105.35z" class="O" />
    <path d="M657.92 388.12l157.09-13.09-490.89-.72-22.55 13.09 356.35.72z" class="K" />
    <path d="M815.01 375.03v9.46l-153.22 13.26-363.97-2.29 3.75-8.06 359.56.33 153.88-12.7z" class="F" />
    <g clip-path="url(#A)">
        <path fill="#bcbec0" d="M661.13 387.73l.66 10.02 153.22-13.26v-9.46l-153.88 12.7z" />
    </g>
    <g class="C">
        <path d="M815.01 375.03v9.46l-153.22 13.26-363.97-2.29 3.75-8.06 359.56.33 153.88-12.7z" class="B D" />
        <ellipse cx="387.39" cy="142.88" rx="6.46" ry="16.15" transform="matrix(.197315 -.98034 .98034 .197315 170.86 494.46)" fill="#d54b4b" />
        <path d="M76.52,404.33s1.72-2.29,8.88-3.43l204.41,3.72,3.43,80.73-85.88,6.87-71-10.88Z" class="B G" />
    </g>
    <path d="M341.86 264.78l-24 62.12 23.42-.57h0l23.16-60.52a1 1 0 0 0-.9-1.33l-20.82-.34a1 1 0 0 0-.86.64z" class="K" />
    <path d="M344.72 264.59l-24 62.12a0 0 0 0 0 0 0l23.43-.58h0l23.16-60.52a1 1 0 0 0-.89-1.33l-20.77-.28a1 1 0 0 0-.93.59z" class="B C F" />
    <ellipse cx="354.8" cy="272.35" rx="3.24" ry="1.72" transform="matrix(.183265 -.983064 .983064 .183265 22.05 571.25)" class="K" />
    <path d="M384.86 512.84l-4.87-14.6-8.02 8.87 1.72 6.59 11.17-.86zM236 582.26l159.35-.14 17.18 53.06 12.41.05-21.95-66.47-171.01 1.33" class="O" />
    <use xlink:href="#f" class="G" />
    <g clip-path="url(#B)">
        <path d="M87.09,473.71l27.58,4.63s-31.73-39.78-16.35-72.49L82.7,403.21s-9.83-1.48-9.56,10.34Z" class="I" />
    </g>
    <g class="B C">
        <use xlink:href="#f" class="D" />
        <path fill="#fff" d="M253.16 442.98l-1.43-4.01-16.58-116.37.57-16.32 30.92.29 23.76 54.11 11.74 67.56-8.59 7.16-40.39 7.58z" />
        <path d="M352.28 624.4s-7.48 11.43-3.92 18.66a4 4 0 0 0 2.56 2.07c2.67.72 8.42 2.76 10.87 7.31 0 0 8 12.3 30.73 8.12a11.06 11.06 0 0 1 2.23-.15c5.75.22 33.66-1.23 32.39-16.31 0 0-1.16-12.75-19.24-8.81h-37.77s-8.58-12.97-17.85-10.89z" class="F" />
    </g>
    <use xlink:href="#g" class="G" />
    <g clip-path="url(#C)">
        <path d="M242.58 532.41s68.9-18.63 153-17.5l-57-11.3L212.89 510l.89 6.63s29.93 1.1 28.8 15.78z" class="I" />
    </g>
    <use xlink:href="#g" class="B C D" />
    <path d="M335.81,545.28l20.34,55.5A54.5,54.5,0,0,0,391.68,594l-17.89-57.35Z" class="F" />
    <g clip-path="url(#D)" class="P">
        <path d="M340 556.73l4.9.14 4.9-.15a73.3 73.3 0 0 0 9.69-1.21 58 58 0 0 0 9.42-2.54l2.29-.85 2.22-1 1.12-.5 1.08-.59 2.16-1.17a43 43 0 0 1-8.69 4.6 53.9 53.9 0 0 1-9.47 2.72 65.85 65.85 0 0 1-9.8 1.06 55.6 55.6 0 0 1-9.82-.51zm2.55 7.88l4.89.18 4.88-.07a78.52 78.52 0 0 0 9.69-1l4.76-1 4.66-1.41a37 37 0 0 0 8.66-4.41 32.1 32.1 0 0 1-4 2.79 41 41 0 0 1-4.45 2.1 49.45 49.45 0 0 1-9.49 2.55 68.3 68.3 0 0 1-9.79.83 61.48 61.48 0 0 1-9.81-.56z" />
    </g>
    <g class="B C">
        <path d="M335.81,545.28l20.34,55.5A54.5,54.5,0,0,0,391.68,594l-17.89-57.35Z" class="D" />
        <path d="M298.68,506l21.19-.57,55.72-54.33a4.75,4.75,0,0,0,1.22-4.84,20.83,20.83,0,0,0-5.7-8.68l-36.35-34.35-4.08.16-35.4,28.14Z" class="J" />
    </g>
    <path d="M72.94 547.05l133.46 19.42 6.87 15.27-144.29-22.52 3.96-12.17z" class="B M N" />
    <use xlink:href="#h" class="H" />
    <g clip-path="url(#E)">
        <path d="M165.28 318.76s12.27-11.11 21.91-1.73c0 0 18.25 21.81-1.27 46.91 0 0 15.78-45.48-20.64-45.18zM127.66 343a3.55 3.55 0 0 0-.82 5s2.23-1.22 5.67.55c0 0 10 5 18.54 20.49h2.77s-1.27-6.58-14.3-17.75c0 .08-8.26-6.86-11.86-8.29z" class="I" />
    </g>
    <use xlink:href="#h" class="B C D" />
    <use xlink:href="#i" class="H" />
    <g clip-path="url(#F)">
        <path d="M312.64,362.08S327.7,347.27,332.71,340l8.79,9.78s-12.3,15.81-23.84,24.1Z" class="I" />
    </g>
    <use xlink:href="#i" class="B C D" />
    <path d="M223.59,269.33l-.66,41.72s22.85,2.32,37.75-1l-1.33-20.53-32.21-20.59Z" class="E" />
    <g clip-path="url(#G)" class="L">
        <path d="M260.6,306.7s-27.59-1-31.33-28.43c4.86,10.19,12.7,16.67,21.13,16.15a16.43,16.43,0,0,0,8.9-3.39Z" />
    </g>
    <g class="B C">
        <path d="M223.59,269.33l-.66,41.72s22.85,2.32,37.75-1l-1.33-20.53-32.21-20.59Z" class="D" />
        <path d="M543.33 636.39l59.53-211.83h18.47l-59.94 211.01-18.06.82z" class="F" />
    </g>
    <path d="M535.94 635.98l7.39.41 59.53-211.83-6.34.29-60.58 211.13z" class="K" />
    <path d="M655.4 537.74l.29 12.03 149.63-12.31.38-11.46-150.3 11.74z" class="B C F" />
    <path d="M550.9 535.45v13.75h26.34v-12.32h11.74v11.74h26.34V536.6h10.59v12.31h29.78v-11.17l115.66-8.87-1.72-2.29-218.73 8.87z" class="K" />
    <path d="M492.5 324.74l26.89 38.41a10.08 10.08 0 0 1 1.85 6.65 7.74 7.74 0 0 1-3 5.56 9.31 9.31 0 0 1-5.18 1.89l-42.6 2.75-.16 3 82.09-.21v-3.37l38.2-2.93a8.67 8.67 0 0 0 7.43-5.23 5.37 5.37 0 0 0 .21-.56 8.32 8.32 0 0 0-1.16-7.24l-25.5-37.57z" class="B C F" />
    <path d="M552.34,379.42v3.73l40.94-3.44s8.77-1.46,8.47-11.34a16.18,16.18,0,0,0-2.86-8.54l-23.08-33.94h-4.29L597,363.46s6.25,9.51-6.48,13Z" class="K" />
    <use xlink:href="#j" class="F" />
    <g clip-path="url(#H)" class="K">
        <path d="M546.86 349.66c-4.14 2.07-11.3-1.5-16.58-8.43-5.65-7.4-7-15.84-3.06-18.85a5.54 5.54 0 0 1 3.65-1.06 4.25 4.25 0 0 0-.78.49c-4 3-2.59 11.45 3 18.85 4.26 5.52 9.66 8.9 13.77 9z" />
    </g>
    <use xlink:href="#j" class="B C D" />
    <path d="M649.46 327.13l-226.88-1.55a10.58 10.58 0 0 1-10.42-12.32L438 163.12a10.62 10.62 0 0 1 10.46-8.76l226.64-.87a10.58 10.58 0 0 1 10.55 12.27L660 318.32a10.62 10.62 0 0 1-10.54 8.81z" class="K" />
    <path d="M644.88 324.39L418 322.83a10.65 10.65 0 0 1-10.42-12.45l25.87-151.73a10.66 10.66 0 0 1 10.46-8.87l226.64-.87a10.65 10.65 0 0 1 10.55 12.4l-25.64 154.18a10.65 10.65 0 0 1-10.58 8.9z" class="B C F" />
    <path fill="#fff" d="M420.93 292.96h229.6l20.62-133.41H443.26l-22.33 133.41z" />
    <g clip-path="url(#I)">
        <path d="M491.79 248.53l-2.53 45.92h109.93l-17.36-44.37-90.04-1.55z" class="G" />
        <g clip-path="url(#J)">
            <path d="M489.26,294.45l26.74.05s-7.59-32.26,28-38.86c0,0-33.45.39-52.19-7.12Z" opacity=".1" />
        </g>
        <path d="M491.79 248.53l-2.53 45.92h109.93l-17.36-44.37-90.04-1.55z" class="B C D" />
    </g>
    <use xlink:href="#k" class="G" />
    <g clip-path="url(#K)">
        <path d="M569.59,230.75,615,173.29,581.82,250,544,255.38a136.34,136.34,0,0,0,17.88-5.2,13.12,13.12,0,0,0,8.25-13.33Z" opacity=".1" />
    </g>
    <use xlink:href="#k" class="B C D" />
    <use xlink:href="#l" class="E" />
    <g clip-path="url(#L)" class="L">
        <path d="M402.25 94.45a13 13 0 0 1 2.64-6.6 16 16 0 0 1 5.61-4.66 19.4 19.4 0 0 1 7-1.78 32.68 32.68 0 0 1 3.57 0l3.48.67-3.48.31-1.7.25c-.56.11-1.13.1-1.68.26a26.53 26.53 0 0 0-3.24.84 13.79 13.79 0 0 0-1.57.53l-1.51.66a19.53 19.53 0 0 0-5.3 3.87 20.36 20.36 0 0 0-3.82 5.65zm39.29 28.27s4.87-.1 6.3-1.67a46.21 46.21 0 0 1-4.72 10.73z" />
    </g>
    <g class="B C">
        <use xlink:href="#l" class="D" />
        <path d="M443.57 134.42c-.19.87-.24 3 3.74 3 0 0 17.42-1.61 22.34-9.81a.92.92 0 0 0-.07-1l-.7-.94a3.77 3.77 0 0 1 3.58 2.29l13.74 46.52 1.91.19 2.86 41.8s-24.43 9.16-30.53-8l-18.33-69.85a4.64 4.64 0 0 1 1.26-4.25.12.12 0 0 1 .2.05z" class="G" />
    </g>
    <use xlink:href="#m" class="J" />
    <g clip-path="url(#M)" class="Q">
        <path d="M538.21 140.65a10.62 10.62 0 0 0 .59-4.62s28-.79 36.82-18.24l7.48 10.72s-10.94 12.93-44.89 12.14zM529 117.29l-1.7 7s-.71 7.08 2.56 7.67l1.91.18-2.27 8.58-1.07-.08s-13.91-1.16-10.5-10.36a6 6 0 0 1 2-3 7.37 7.37 0 0 0 1-3.2s3.87-4.8 8.07-6.79z" />
    </g>
    <use xlink:href="#m" class="B C D" />
    <use xlink:href="#n" class="E" />
    <g clip-path="url(#N)" class="L">
        <path d="M560.07 94.66s-8 19.66-24.43 19.66c0 0-4.23-.15-6.22-2.27 0 0-.7 8.24-1.82 10.79a24.06 24.06 0 0 0-.17 6s30.35 3.99 32.64-34.18z" />
    </g>
    <g class="C">
        <use xlink:href="#n" class="B D" />
        <ellipse cx="541.96" cy="74.37" rx="40.48" ry="23.99" transform="matrix(.202958 -.979187 .979187 .202958 359.14 589.95)" class="E" />
        <g class="B J">
            <path d="M518.47,69.5s-19.1-7.86-10.79-26.18c0,0,5.5-13.38,20.79-13.27a4.93,4.93,0,0,0,3.54-1.5c3.85-4,15-13,27.48-1.26,0,0,3.15,4.29,11.46,4.58,0,0,13.16-1.15,14,3.15,0,0,2.29,6.87-9.16,15.46,0,0,3.44-9.17-23.19-14.89,0,0-16-3.72-24.9,6.87Z" />
            <path d="M575.81 50.48l-3.2 13.44a.2.2 0 0 1-.38 0c-.9-1.8-4.56-7.71-14.84-10.92a29.25 29.25 0 0 0-7.22-1.5s-5.75-.41-9-3.65c0 0-5.29-7.67-12.93-5.6A.18.18 0 0 1 528 42c1.52-1.9 8.55-9.17 25.54-6.34.04.02 23.89 4.41 22.27 14.82z" />
        </g>
    </g>
    <use xlink:href="#o" class="E" />
    <g clip-path="url(#O)" class="L">
        <path d="M407.57,201.54,456.71,209a4.55,4.55,0,0,0,5.06-3.23h0Z" />
    </g>
    <g class="B">
        <use xlink:href="#o" class="C D" />
        <path d="M380.26 118.65c.49-3 3.55-17.2 17.83-17.34 0 0 15.2 1.43 16-8.16l2.08.32s-3.36 9-11.52 10.07c0 0 .58 9-3 13.69a6.24 6.24 0 0 1-6 2.29 58.51 58.51 0 0 0-15-.36.44.44 0 0 1-.39-.51z" class="M N" />
    </g>
    <use xlink:href="#p" class="J" />
    <g clip-path="url(#P)" class="Q">
        <path d="M514.86,166.81s9.13-7.55,6.55-14.4c0,0-2.89-8.65,8.1-11.68,0,0-8.58,1.6-12.33.74,0,0-5.86-.12-4.64,8.61Z" />
    </g>
    <g class="C">
        <g class="B">
            <use xlink:href="#p" class="D" />
            <path d="M424.87 202.75l-5.57-4.58 8.69-1.97 12.41 7.82-15.53-1.27zm12.09-9.41l4.77 10.87 8.4.77-6.87-13.36-6.3 1.72z" class="E" />
            <path d="M337.71 197s-2.31-2.64 5.28-8.58l160.71-46.2s7.59-.66 9.57 4.95c0 0-3.3 6.93-15.51 13.2l-30.36 21.48-111.21 26.07s-15.19.66-18.48-10.92z" fill="#d54b4b" />
            <path d="M337.71 197s.33 10.23 6.27 10.56c0 0 10.89 5.94 61.38-6.27 0 0 49-10.15 82.75-26.69 0 0 24.5-10.27 27.47-20.5l-2.31-6.93s-2.64 6.6-15.51 13.2c0 0-38.61 21.45-105.93 35.64 0-.01-47.19 10.92-54.12.99z" fill="#f98181" />
        </g>
        <ellipse cx="388.15" cy="140.99" rx="6.46" ry="16.15" transform="matrix(.197315 -.98034 .98034 .197315 173.33 493.68)" fill="#f98181" />
    </g>
    <path d="M572.85 397.37v11.83h23.67v15.65h34.74v-15.27h25.96v-11.83l-84.37-.38z" class="K" />
    <path d="M604.54 409.2v-11.78h16.79v10.31l-16.79 1.47zm26.72 15.65l3.81-.19 63 212.43 18-1.44-62.39-212.71 59-5.44-57.56 209.28 18.88-1.15 57.26-209.85 12.6-.57 63.55 211.57 17.18-1.72c.86 0-63-212.14-63-212.14l27.48-1.72-.29-13.45 26.63-2.29-.43-11-153.18 13.29h-4.59v11.83h-26z" class="B C F" />
    <g class="K">
        <path d="M648.24 626.29l6.88.49 57.54-209.28-7.32.73-57.1 208.06zm88.03-211.17l63.63 211.47 7.52.19-63.55-211.57-7.6-.09z" />
        <path d="M627.49 424.56l63.22 212.65 7.35-.12-62.98-212.43-7.59-.1z" />
    </g>
    <path d="M577.24 536.88h11.74v11.74h-11.74zm38.1-.54h10.42v12.34h-10.42z" class="B C F" />
    <path d="M547.18 57.06a59.71 59.71 0 0 1 6.16-1.55 7.52 7.52 0 0 1 8.55 4.86c2.58 7.6-1 20.17-1 20.17 3.43-2.58 9.73-4.87 9.73-4.87l.86-12.6c-3-6.23-12.62-9.55-17.24-10.83a23.68 23.68 0 0 0-4.11-.69 16.31 16.31 0 0 1-9-3.65c-5.44-7.44-12.31-5.73-12.31-5.73-9.73 1.72-7.16 12.31-7.16 12.31-3.71 3-3.53 11-3.33 13.92a.41.41 0 0 0 .75.2 26.89 26.89 0 0 0 4.3-11.83s8.34 7.16 23.8.29z" class="B C H" />
    <ellipse cx="566.35" cy="84.03" rx="9.5" ry="6.34" transform="matrix(.5 -.87 .87 .5 210.41 532.49)" class="C E" />
    <ellipse cx="533.82" cy="137.33" rx="5.22" ry="5.96" class="J" />
    <g clip-path="url(#Q)" class="Q">
        <path d="M533.42 143.31s6.07-3.59 1.35-11.79a5.74 5.74 0 0 1 4.16 6.63s-.34 5.05-5.51 5.16z" />
    </g>
    <ellipse cx="533.82" cy="137.33" rx="5.22" ry="5.96" class="C D" />
    <use xlink:href="#q" class="G" />
    <g clip-path="url(#R)">
        <path d="M589.65 129.78s-15.56 30.08-10.11 39.92a16.29 16.29 0 0 1 2.21 9c-.39 5.48-2.18 13-8.45 18a48.68 48.68 0 0 0-13.46 16.06c-5.15 10.18-8.69 22.94 4.61 24.66L615 173.29s10-20.25-5-33.61c0 0-5.59-6.43-20.35-9.9z" opacity=".1" />
        <path d="M523.61 203.45a30 30 0 0 1 3 9 22.27 22.27 0 0 1-.37 9.54 17.92 17.92 0 0 1-1.93 4.42 18.24 18.24 0 0 1-3.09 3.69 20.87 20.87 0 0 1-1.89 1.48l-1 .67-1 .59a8.88 8.88 0 0 1-1.06.55l-1.08.5-2.23.84a26.65 26.65 0 0 0 7.94-5 20 20 0 0 0 2.92-3.63 17 17 0 0 0 1.81-4.28 19.81 19.81 0 0 0 .74-4.6 29.3 29.3 0 0 0-.23-4.68 31.55 31.55 0 0 0-1-4.62 34.34 34.34 0 0 0-1.53-4.47z" fill="#f4bd31" />
    </g>
    <g class="B C">
        <use xlink:href="#q" class="D" />
        <path d="M223.26 283.52l-.19 11.07s-6.53-2-5.6-5.73c0 0 .53-2.5 5.79-5.34zM259.3 291a35.34 35.34 0 0 0 4.88-4.87s2.58 3.92-1.05 8.38a13.5 13.5 0 0 0-1.67 2.55 12 12 0 0 0-1.36 4.11z" class="J" />
    </g>
    <use xlink:href="#r" class="H" />
    <g clip-path="url(#S)">
        <g class="I">
            <path d="M176.35 372.73l-.4-.92c32.91-14.19 75.8-16.53 76.23-16.55v1c-.37.02-43.09 2.35-75.83 16.47z" />
        </g>
        <g class="I">
            <path d="M164.5 425.56l-.75-.66c.21-.25 22.48-25.1 97.41-27.37v1c-74.39 2.26-96.44 26.78-96.66 27.03z" />
        </g>
    </g>
    <g class="B D">
        <use xlink:href="#r" class="C" />
        <path d="M127.66 343s21.1 12.15 26.16 26.09h-2.77s-8.11-13.36-16.7-19.37c0 0-4.21-3.07-7.08-1.54 0 0-.36.4-.93-1.18a3.69 3.69 0 0 1 1.32-4z" stroke="#231f20" stroke-width=".25" />
    </g>
    <path d="M138.09 336.39L127.66 343a95.32 95.32 0 0 1 15.94 12s8.36 7.69 10.22 14.1l12.05-.16s-7.49-16.13-12.8-21.75c0 .02-7.7-8.61-14.98-10.8z" class="B C H" />
    <use xlink:href="#s" class="E" />
    <g clip-path="url(#T)" class="L">
        <path d="M121.847 371.494l.114-.66 19.031 3.273-.114.66z" />
        <path d="M121.9 371.14l19.04 3.27" />
        <path d="M125.76,349.08s13.6,4.15,15.18,25.33c0,0,.24-2.34,4.91-3.6,0,0-2.13-5.78,1-8.39,0,0-12.34-17.55-19.57-14.24Z" />
    </g>
    <g class="B D">
        <use xlink:href="#s" class="C" />
        <path d="M146.84,362.42s-.32,3.41,3.83,3.69c0,0,7,.83,18.24-4.68a11.66,11.66,0,0,0,1.49-.88c2.21-1.55,7.95-6.11,6.32-10.76l-1.81-.59Z" stroke="#231f20" stroke-width=".25" />
    </g>
    <use xlink:href="#t" class="H" />
    <g clip-path="url(#U)">
        <g class="I">
            <path d="M313,364.21c-13-7.12-37.49-7.26-37.74-7.26v-1c.25,0,24.95.14,38.22,7.38Z" />
        </g>
        <g class="I">
            <path d="M325.9,407.62c-7.83-5-31.32-7.35-31.56-7.37l.1-1c1,.1,24,2.36,32,7.52Z" />
        </g>
    </g>
    <use xlink:href="#t" class="B C D" />
    <use xlink:href="#u" class="E" />
    <g clip-path="url(#V)" class="L">
        <path d="M329.68 321.69l-.35-.57c.3-.19 7.55-4.57 21.55-1.42l-.15.65c-13.73-3.08-20.97 1.29-21.05 1.34zm-4.81-8l-.27-.61c.15-.06 14.6-6.25 25.21-1.09l-.29.6c-10.34-5.02-24.52 1.04-24.65 1.1zm30.39-9.69a22.83 22.83 0 0 0-13.63-.8l-.19-.64a23.58 23.58 0 0 1 14.08.82z" />
        <path d="M340.758 301.652l6.7-5.391.42.522-6.7 5.391zM330.46 362.82l-5-27.68s5.7-.46 8.12-7a.23.23 0 0 1 .45.09c.04 5.46-.19 24.38-3.57 34.59z" />
    </g>
    <use xlink:href="#u" class="B C D" />
    <path d="M181.88 455.29l1.85 9.5L253.16 443v-4.87l-1.43.86s-65.56.56-69.85 16.3z" class="H" />
    <g clip-path="url(#W)">
        <path d="M183.73 464.79l-1.85-9.5s-1.52-13.73 69.85-16.32c0 0 1.13-.29 1.43-.86l-.27 2.44s-62.75 5.83-69.16 24.24z" class="I" />
    </g>
    <g class="B C">
        <path d="M181.88 455.29l1.85 9.5L253.16 443v-4.87l-1.43.86s-65.56.56-69.85 16.3z" class="D" />
        <path d="M183.73,464.79l-1,48.05,116-6.88s10.6-1.14,13.74-15.17c0,0,4-40.37-15.46-58.69,0,0-3.72-1.72-10.87.29Z" class="J" />
    </g>
    <ellipse cx="293.41" cy="468.26" rx="18.41" ry="34.36" transform="matrix(.987108 -.160053 .160053 .987108 -71.2 53.03)" class="I" />
    <path d="M365.39,443.12s6.08,6.79,9.1,4.21l.13-.15c.29-.49,1.19-2.85-4.22-8.64Z" class="I" />
    <use xlink:href="#v" class="E" />
    <g clip-path="url(#X)" class="L">
        <path d="M286.56,436.78s-4.53,5-1.44,15.39a15,15,0,0,0,1.05,2.6l18.33,36.12-18.32,5.34s-12.79-13.07-11.55-39.6c0,0,.67-11.84,6.3-18.37Z" />
    </g>
    <g class="B C">
        <use xlink:href="#v" class="D" />
        <path d="M355.3 598.45s-2.78-1.86-2.55 11.35l-.47 14.6a65.68 65.68 0 0 0 6 3s4.92 1.71 8 20.74a5.45 5.45 0 0 0 2.68 3.91 34 34 0 0 0 18.09 4.56 11.1 11.1 0 0 0 7.7-3.76c5.24-5.91 17.14-18.23 24-16.64a11.56 11.56 0 0 1 8.35 7.88s1.62-7.65-14.83-13l-18.08-33.37s4.17-12-6.72-12.51c0 0-20.63.69-19 9.73v5.1s-9.47 1.19-13.17-1.59z" class="H" />
    </g>
    <path d="M218.5 604.3l6.02-22.72 13.14.82-12.32 21.9h-6.84z" class="O" />
    <path d="M211.93 603.48l3.28-17.25 4.66 11.77-1.37 6.3-6.57-.82z" class="B M N" />
    <use xlink:href="#w" class="J" />
    <g clip-path="url(#Y)">
        <path d="M265.83 325.39s-12.18-16.24-2.8-30.66a7.13 7.13 0 0 0 1.15-8.57s3.34 1.84 3.06 12.21a32.89 32.89 0 0 1-1.9 9.85c-.99 2.85-1.87 8.32.49 17.17z" class="I" />
    </g>
    <use xlink:href="#w" class="B C D" />
    <use xlink:href="#x" class="J" />
    <g clip-path="url(#Z)">
        <path d="M243.42 328.4s-12.2-6.17-18-14.56a16.39 16.39 0 0 1-2.77-9c-.07-3.64-1.28-10.32-9-11.47 0 0 1.62 5.93-2.08 8.87 0 0-2 2.21.34 5-.05-.06 4.64 12.98 31.51 21.16z" class="I" />
    </g>
    <g class="C">
        <g class="B">
            <use xlink:href="#x" class="D" />
            <path d="M216.37,225.54l3.38-8.69A18,18,0,0,1,243,206.49a43.41,43.41,0,0,1,16.93,12Z" class="H" />
            <path d="M259.3 291a16.43 16.43 0 0 1-8.9 3.39c-8.43.52-16.27-6-21.13-16.15a54.23 54.23 0 0 1-5-19.89c-1.26-20.71 8.35-38.15 21.49-38.95s24.8 15.33 26.07 36c1 15.71-4.25 29.48-12.53 35.6z" class="E" />
        </g>
        <ellipse cx="222.76" cy="262.71" rx="4.8" ry="7.62" transform="matrix(.81825 -.574862 .574862 .81825 -110.53 175.81)" class="E" />
        <g class="B">
            <path d="M268.15 238.32c1.15 1.71 1.76 5.69 1.76 5.69a6.63 6.63 0 0 0 2.17-2.48 3.67 3.67 0 0 0 .32-2.48l-2.63-12.79a7.79 7.79 0 0 0-3.3-5.58c-20.75-9.45-50.1 4.86-50.1 4.86-4.86 2.15-4.72 5-4.72 5l3 14.89c1 4.44 2.72 4 2.72 4l3.57-4 5-5.73s28.75-9.4 42.21-1.38z" class="H" />
            <path d="M219.24 255.89l-1.43-5.73a6.22 6.22 0 0 1 2-7.44s7.16-7.44 28.49-8.3c0 0 17.74-1.75 21.44 4a.23.23 0 0 1-.27.35c-3.22-1.18-19.44-6.26-41.93 1.66l.29 21.9a9.94 9.94 0 0 0-8.59-6.44z" class="G" />
        </g>
    </g>
    <use xlink:href="#y" class="E" />
    <g clip-path="url(#a)" class="L">
        <path d="M344.78 408.34l25.49-27.24" />
        <path d="M344.53 408.11l25.74-27.01-25.25 27.47-.49-.46z" />
    </g>
    <use xlink:href="#y" class="B C D" />
    <use xlink:href="#z" class="F" />
    <g clip-path="url(#b)" class="P">
        <path d="M333.4 421.43a39.07 39.07 0 0 1 10.85.2 30.91 30.91 0 0 1 10.32 3.49 21.68 21.68 0 0 1 4.37 3.31 19 19 0 0 1 3.38 4.31 24.21 24.21 0 0 1 3.07 10.38l-.25-1.33a12.48 12.48 0 0 0-.26-1.33 25.54 25.54 0 0 0-.74-2.59 21.5 21.5 0 0 0-2.26-4.86 21 21 0 0 0-7.65-7.31 31.29 31.29 0 0 0-10.07-3.57 43.91 43.91 0 0 0-5.35-.66 42.46 42.46 0 0 0-5.41-.04zm4.93-5.36a27.18 27.18 0 0 1 11.14-.76 28 28 0 0 1 10.6 3.67 19.73 19.73 0 0 1 4.49 3.43 22.32 22.32 0 0 1 3.5 4.43 21.38 21.38 0 0 1 3.05 10.7 23.8 23.8 0 0 0-1.11-5.44 20.77 20.77 0 0 0-2.37-5 25.08 25.08 0 0 0-3.48-4.27 19.9 19.9 0 0 0-4.4-3.29l-1.19-.7-1.25-.6a22.87 22.87 0 0 0-2.55-1.07 31 31 0 0 0-10.89-1.75 27.19 27.19 0 0 0-5.54.65z" />
    </g>
    <g class="B C">
        <use xlink:href="#z" class="D" />
        <path d="M297.25 452.43s-13.74 6.2-14.5 12.31c0 0 4.39-7.25 16.22-.38 0 0 4.77 2.48 17.37 11.64 0 0 4.58 5 28.05 10.69l23.1 7.44s13.17 3.63 10.3 12.6c0 0 6.59-7.64 1.48-16.8l-51.67-25.57s-17.75-15.84-30.35-11.93z" fill="#fff" />
        <path d="M289.81 481.73s-12.41-7.07-7.06-17c0 0 3.24-7.06 16.22-.38L316.34 476a42.5 42.5 0 0 0 8.2 4.58s11.65 4.39 15.65 5l27.3 8.59s13 2.86 10.3 12.6c0 0-9.16 15.84-46.18 5.15 0 0-6.87-2.48-16.8-14.12a48.21 48.21 0 0 0-13.36-8.4 79.72 79.72 0 0 1-11.64-7.67z" class="F" />
        <path d="M313.43 465c0 4 4 7.13 7.53 9.05a31.6 31.6 0 0 0 7.07 2.78 391.62 391.62 0 0 1 40.22 13.22c7.44 4 11-.15 11-.15l-17.17-12c-4-2-4.16-3.72-4.16-3.72a136.53 136.53 0 0 0-7.45-15.55 13.45 13.45 0 0 0-11-9.5l-18.27-2.32a1.68 1.68 0 0 1-1.14-.86l-2.52-5.84c-18.36 4.45-20.3 12.31-20.3 12.31s14.18.58 16.19 12.58z" class="H" />
    </g>
    <use xlink:href="#AA" class="G" />
    <g clip-path="url(#c)">
        <path d="M72.94,547.05s34.88-33.24,112.12-32.14L87.59,500.67Z" class="I" />
    </g>
    <use xlink:href="#AA" class="B C D" />
    <path d="M254.07 635.77l-10.61-.25-50.39-141.61-128.25-20.99 21.34.79 121.2 18.51 24.62 77.87 22.09 65.68z" class="O" />
    <path d="M41.16 603.08l23.66-130.16 128.25 20.99 50.39 141.61-7.64-.38-50.76-120.24-107.64-16.03-29.39 105.35-6.87-1.14z" class="B M N" />
    <use xlink:href="#AB" class="G" />
    <g clip-path="url(#d)">
        <path d="M164.92 412.24s22.8-.26 34.08-16.15c0 0 1.2 9.67-6.25 13.68 0 0-14.6 9.31-19.32 7.87 0 0-5.29.36-8.51-5.4z" class="I" />
    </g>
    <use xlink:href="#AB" class="B C D" />
    <use xlink:href="#AC" class="E" />
    <g clip-path="url(#e)" class="L">
        <path d="M143.037 381.445l.081-.665 5.886.718-.081.665zm11.843 12.745a29.68 29.68 0 0 1-8.9-1.57l.22-.63c.06 0 6 2.12 11 1.37l.1.66a16.49 16.49 0 0 1-2.42.17zm7.44 9.81a34 34 0 0 1-11.78-2.25l.26-.62a32.56 32.56 0 0 0 13.51 2.13l.05.66c-.69.08-1.36.08-2.04.08z" />
    </g>
    <g class="C">
        <use xlink:href="#AC" class="B D" />
        <ellipse cx="160.19" cy="353.66" rx="16.24" ry="6.56" transform="matrix(.907851 -.419294 .419294 .907851 -133.53 99.77)" class="F" />
    </g>
    <path d="M173.8 348.7c-2.24-2.22-8.6-1.77-15.12 1.24-7 3.24-11.66 8.26-10.62 11.4a2.7 2.7 0 0 1-.6-.84c-1.45-3.12 3.25-8.36 10.5-11.7s14.28-3.53 15.72-.42a1.75 1.75 0 0 1 .12.32zm-22.56 6.87l10.69.76s-5.92 5.53-11.07 4c0 .01-2.86.58.38-4.76z" fill="#a7a9ac" />
    <g class="M N">
        <path d="M343.32,180.53s-.66,1.65-.33,7.92c0,0,1,7.26,7.26,6.93,0,0,15.51,5.28,63.36-8.25,0,0,57.09-13.53,84.48-31.68,0,0,11.66-6.76,2.86-18.89Z" class="B" />
        <ellipse cx="421.84" cy="160.16" rx="82.56" ry="14.68" transform="matrix(.958273 -.285856 .285856 .958273 -28.18 127.27)" />
    </g>
    <ellipse cx="421.98" cy="161.21" rx="70.48" ry="10.69" transform="matrix(.958273 -.285856 .285856 .958273 -28.47 127.36)" class="O" />
    <path d="M378 172.72s3.72-9.73 38.07-18.61a132.59 132.59 0 0 0 18.9-4.29s43.23-14.6 46.66-8c0 0-2 3.44-10 5.73 0 0 5.73 3.15-12.88 9.16 0 0-29.77 12.88-58.12 16.6 0 0-25.8 7.82-32.42 6.65a.94.94 0 0 1-.43-1.63c1.22-1.12 4.06-3.08 10.22-5.61zM362.62 176a.67.67 0 0 1-.34-1.18 21.39 21.39 0 0 1 6.54-3.15s4.84-1.76 7.38-1.29a.67.67 0 0 1 .21 1.24c-2.41 1.43-8.81 4.84-13.79 4.38z" fill="#fff" />
    <g class="M N">
        <ellipse cx="448.83" cy="151.73" rx="18.96" ry="3.67" transform="matrix(.958273 -.285856 .285856 .958273 -24.64 134.64)" />
        <path d="M402 170.15s12.89-8.31 16.61-27.2c.03.05 30.95 17.18-16.61 27.2z" class="B" />
    </g>
    <g class="P">
        <ellipse cx="241.2" cy="258.48" rx="1.96" ry="3.26" />
        <ellipse cx="261.4" cy="257.59" rx="3.26" ry="1.96" transform="matrix(.036469 -.999335 .999335 .036469 -5.55 509.41)" />
    </g>
    <path d="M253.28 259.5s7.55 9 2.07 10.85M242.83 274s7.34 4.92 11.92 3.58" class="B C D" />
    <g class="P">
        <ellipse cx="542.11" cy="78" rx="1.96" ry="3.26" />
        <ellipse cx="521.91" cy="77.11" rx="1.96" ry="3.26" transform="matrix(.999335 -.036469 .036469 .999335 -2.47 19.1)" />
    </g>
    <path d="M530 79s-7.55 9-2.07 10.85m12.55 3.65s-7.35 4.92-11.93 3.58" class="B C D" />
</svg>