<svg xmlns="http://www.w3.org/2000/svg" version="1.1" xmlns:xlink="http://www.w3.org/1999/xlink" xmlns:svgjs="http://svgjs.com/svgjs" width="1440" height="560" preserveAspectRatio="none" viewBox="0 0 1440 560">
    <g mask="url(&quot;#SvgjsMask1434&quot;)" fill="none">
        <rect width="1440" height="560" x="0" y="0" fill="url(#SvgjsLinearGradient1435)"></rect>
        <path d="M307.32632686204266 350.13687574575164L168.70709512741013 372.0920051822586 190.6622245639171 510.71123691689115 329.28145629854964 488.7561074803842z" fill="rgba(255, 0, 1, 0.51)" class="triangle-float2"></path>
        <path d="M946.568,565.265C1004.682,569.006,1065.25,546.859,1094.298,496.387C1123.291,446.01,1109.181,384.32,1079.45,334.375C1050.509,285.757,1003.099,245.875,946.568,248.22C892.975,250.443,855.909,296.898,831.498,344.66C809.605,387.495,806.23,436.624,828.477,479.275C852.614,525.548,894.486,561.912,946.568,565.265" fill="rgba(255, 0, 1, 0.51)" class="triangle-float1"></path>
        <path d="M564.62 203.96 a171.82 171.82 0 1 0 343.64 0 a171.82 171.82 0 1 0 -343.64 0z" fill="rgba(255, 0, 1, 0.51)" class="triangle-float2"></path>
        <path d="M217.46106188491427 257.26091752620886L127.95574664311621 269.84006924059184 140.53489835749923 359.34538448238993 230.04021359929726 346.76623276800694z" fill="rgba(255, 0, 1, 0.51)" class="triangle-float3"></path>
        <path d="M11.896696151328257 148.90947531449538L114.13819713301062 31.294082678312193-3.4771955031725668-70.94741830337017-105.71869648485493 46.66797433281302z" fill="rgba(255, 0, 1, 0.51)" class="triangle-float2"></path>
        <path d="M648.269,347.519C686.617,347.62,716.535,319.181,736.557,286.475C757.747,251.86,774.11,209.707,754.326,174.27C734.197,138.216,689.559,127.919,648.269,128.336C607.858,128.744,565.467,141.038,545.86,176.376C526.681,210.943,540.483,252.091,560.781,286.013C580.399,318.799,610.062,347.419,648.269,347.519" fill="rgba(255, 0, 1, 0.51)" class="triangle-float1"></path>
    </g>
    <defs>
        <mask id="SvgjsMask1434">
            <rect width="1440" height="560" fill="#ffffff"></rect>
        </mask>
        <linearGradient x1="84.72%" y1="-39.29%" x2="15.28%" y2="139.29%" gradientUnits="userSpaceOnUse" id="SvgjsLinearGradient1435">
            <stop stop-color="rgba(253, 236, 236, 1)" offset="0"></stop>
            <stop stop-color="rgba(245, 71, 71, 1)" offset="1"></stop>
        </linearGradient>
        <style>
            @keyframes float1 {
                0%{transform: translate(0, 0)}
                50%{transform: translate(-10px, 0)}
                100%{transform: translate(0, 0)}
            }

            .triangle-float1 {
                animation: float1 5s infinite;
            }

            @keyframes float2 {
                0%{transform: translate(0, 0)}
                50%{transform: translate(-5px, -5px)}
                100%{transform: translate(0, 0)}
            }

            .triangle-float2 {
                animation: float2 4s infinite;
            }

            @keyframes float3 {
                0%{transform: translate(0, 0)}
                50%{transform: translate(0, -10px)}
                100%{transform: translate(0, 0)}
            }

            .triangle-float3 {
                animation: float3 6s infinite;
            }
        </style>
    </defs>
</svg>