<svg xmlns="http://www.w3.org/2000/svg" version="1.1" xmlns:xlink="http://www.w3.org/1999/xlink" xmlns:svgjs="http://svgjs.com/svgjs" width="512" height="512" x="0" y="0" viewBox="0 0 512 512" style="enable-background:new 0 0 512 512" xml:space="preserve" class="">
    <g transform="matrix(1,0,0,1,0,0)">
        <g id="Stickers">
            <rect fill="#ffffff" height="500" rx="39.929" width="301.698" x="105.151" y="6" data-original="#ffffff" class=""></rect>
            <rect fill="#fd5d5d" height="472.147" rx="35.399" width="273.845" x="119.077" y="19.926" data-original="#ff3d81" class=""></rect>
            <path d="m381.588 61.46v388.14c0 20.759-5.171 30.2-30.2 30.2h-202.948a18.029 18.029 0 0 1 -18.029-18.029v-400.285a30.228 30.228 0 0 1 30.228-30.228h32.083v4.242a17.485 17.485 0 0 0 17.485 17.485h91.585a17.485 17.485 0 0 0 17.485-17.485v-4.242h32.109a30.2 30.2 0 0 1 30.202 30.202z" fill="#fff7bc" data-original="#776cff" class=""></path>
            <path d="m285.509 472.226h-59.018a2.5 2.5 0 1 1 0-5h59.018a2.5 2.5 0 0 1 0 5z" fill="#ffffff" data-original="#ffffff" class=""></path>
            <circle cx="255.999" cy="386.627" fill="#fcc836" r="43.93" data-original="#fcc836" class=""></circle>
            <path d="m229.96 393.5 9.337 10a9.971 9.971 0 0 0 14.228.356l28.295-27.417a5.729 5.729 0 0 0 .486-7.693 5.728 5.728 0 0 0 -8.354-.635l-27.722 25.527-8.166-8.036a5.658 5.658 0 0 0 -7.677-.241 5.658 5.658 0 0 0 -.427 8.139z" fill="#fd5d5d" data-original="#ff3d81" class=""></path>
            <path d="m357.219 107.67v199.267a2.751 2.751 0 0 1 -5.1 1.431l-4.271-7.011a3.376 3.376 0 0 0 -5.592-.258l-9.056 12.179a2.75 2.75 0 0 1 -4.626-.334l-6.117-11.319a3.376 3.376 0 0 0 -5.632-.472l-10.049 12.878a2.75 2.75 0 0 1 -4.294.053l-11.817-14.384a3.377 3.377 0 0 0 -5.161-.07l-12.6 14.528a2.75 2.75 0 0 1 -4.283-.158l-9.979-13.4a3.377 3.377 0 0 0 -5.354-.079l-10.666 13.459a2.75 2.75 0 0 1 -4.332-.026l-12.385-16.031a3.377 3.377 0 0 0 -5.182-.195l-15.236 16.927a2.75 2.75 0 0 1 -3.92.171l-19.33-18.026a3.377 3.377 0 0 0 -4.523-.074l-18.367 16.034a2.75 2.75 0 0 1 -4.559-2.072v-203.018a20.066 20.066 0 0 1 20.066-20.07h162.3a20.066 20.066 0 0 1 20.065 20.07z" fill="#65ced2" data-original="#65ced2" class=""></path>
            <circle cx="255.999" cy="128.729" fill="#fcc836" r="5.407" data-original="#fcc836" class=""></circle>
            <path d="m320 196.438h-128a64 64 0 0 1 128 0z" fill="#fd5d5d" data-original="#ff3d81" class=""></path>
            <path d="m184.685 191.483h142.629a0 0 0 0 1 0 0v7.617a2.3 2.3 0 0 1 -2.3 2.3h-138.032a2.3 2.3 0 0 1 -2.3-2.3v-7.621a0 0 0 0 1 .003.004z" fill="#9b377f" data-original="#9b377f"></path>
            <path d="m342.639 224.978h-173.279a2.5 2.5 0 0 1 0-5h173.279a2.5 2.5 0 0 1 0 5z" fill="#ffffff" data-original="#ffffff" class=""></path>
            <g fill="#0038a6">
                <path d="m275.718 281.567c-.935 0-1.943-.592-1.943-1.379v-1.279c-3.373-.113-7.259-1.188-9.635-3.527a4.365 4.365 0 0 1 -1.508-3.117c0-2.374 2.359-5.456 5.06-3.834 1.98 1.188 3.167 2.7 6.083 3.22v-8.281c-3.716-1.418-7.441-2.9-9.3-6.363a10.63 10.63 0 0 1 -.1-8.435c1.66-3.683 5.389-5.506 9.4-6.107v-1.432c0-.88 1.048-1.38 1.943-1.38.837 0 1.942.547 1.942 1.38v1.279c2.57.112 6.231.582 8.178 2.274 1.19 1.032 1.122 2.384.639 3.833-.456 1.368-1.359 2.53-2.836 2.53-1.912 0-2.492-1.678-5.981-1.89v7.462c3.9 1.5 7.445 3.112 9.175 6.62 1.483 3.011 1.345 8.715-1.892 12.011a12.668 12.668 0 0 1 -7.283 3.553v1.483c0 .783-1.138 1.379-1.942 1.379zm-1.432-26.273v-6.082a4.279 4.279 0 0 0 -2.939 1.686 2.257 2.257 0 0 0 .077 2.479 6.677 6.677 0 0 0 2.862 1.917zm2.862 16.306a5.124 5.124 0 0 0 2.224-1.074 3.029 3.029 0 0 0 .511-3.654 6.037 6.037 0 0 0 -2.735-2.122z" fill="#0038a6" data-original="#0038a6" class=""></path>
                <path d="m303.37 281.567c-.935 0-1.942-.592-1.942-1.379v-1.279c-3.373-.113-7.26-1.188-9.636-3.527a4.009 4.009 0 0 1 -1.048-4.984c.566-1.226 1.653-2.427 3.016-2.427 2.353 0 3.615 2.955 7.668 3.68v-8.281c-3.717-1.418-7.442-2.9-9.3-6.363a10.63 10.63 0 0 1 -.1-8.435c1.661-3.683 5.39-5.506 9.406-6.107v-1.432c0-.88 1.047-1.38 1.942-1.38.838 0 1.943.547 1.943 1.38v1.279c2.569.112 6.23.582 8.177 2.274 1.191 1.032 1.122 2.384.639 3.833-.456 1.368-1.359 2.53-2.836 2.53-1.941 0-2.481-1.678-5.98-1.89v7.462c3.9 1.5 7.445 3.112 9.174 6.62 1.483 3.011 1.346 8.715-1.891 12.011a12.671 12.671 0 0 1 -7.283 3.553v1.483c-.006.783-1.145 1.379-1.949 1.379zm-1.432-26.273v-6.082a4.281 4.281 0 0 0 -2.938 1.688 2.259 2.259 0 0 0 .077 2.479 6.683 6.683 0 0 0 2.861 1.915zm2.862 16.306a5.115 5.115 0 0 0 2.223-1.074 3.028 3.028 0 0 0 .511-3.654 6.04 6.04 0 0 0 -2.734-2.122z" fill="#0038a6" data-original="#0038a6" class=""></path>
                <path d="m331.022 281.567c-.935 0-1.942-.592-1.942-1.379v-1.279c-3.373-.113-7.26-1.188-9.636-3.527a4.009 4.009 0 0 1 -1.044-4.982c.567-1.226 1.653-2.427 3.016-2.427 2.347 0 3.6 2.953 7.668 3.68v-8.283c-3.717-1.418-7.441-2.9-9.3-6.363a10.63 10.63 0 0 1 -.1-8.435c1.66-3.683 5.389-5.506 9.4-6.107v-1.432c0-.88 1.048-1.38 1.942-1.38.838 0 1.943.547 1.943 1.38v1.279c2.57.112 6.23.582 8.178 2.274 1.19 1.032 1.122 2.384.638 3.833-.456 1.368-1.359 2.53-2.836 2.53-1.94 0-2.481-1.678-5.98-1.89v7.462c3.9 1.5 7.445 3.112 9.175 6.62 1.482 3.011 1.345 8.715-1.892 12.011a12.668 12.668 0 0 1 -7.283 3.553v1.483c-.004.783-1.142 1.379-1.947 1.379zm-1.431-26.273v-6.082a4.281 4.281 0 0 0 -2.94 1.686 2.257 2.257 0 0 0 .078 2.479 6.677 6.677 0 0 0 2.862 1.917zm2.862 16.306a5.124 5.124 0 0 0 2.224-1.074 3.031 3.031 0 0 0 .511-3.654 6.048 6.048 0 0 0 -2.735-2.122z" fill="#0038a6" data-original="#0038a6" class=""></path>
            </g>
        </g>
    </g>
</svg>